<?xml version="1.0" encoding="utf-8"?>
<!-- Generator: Adobe Illustrator 16.0.0, SVG Export Plug-In . SVG Version: 6.00 Build 0)  -->
<!DOCTYPE svg PUBLIC "-//W3C//DTD SVG 1.1//EN" "http://www.w3.org/Graphics/SVG/1.1/DTD/svg11.dtd">
<svg version="1.1" xmlns="http://www.w3.org/2000/svg" xmlns:xlink="http://www.w3.org/1999/xlink" x="0px" y="0px"
	 width="305.667px" height="149.667px" viewBox="0 0 305.667 149.667" enable-background="new 0 0 305.667 149.667"
	 xml:space="preserve">
<metadata><?xpacket begin="﻿" id="W5M0MpCehiHzreSzNTczkc9d"?>
<x:xmpmeta xmlns:x="adobe:ns:meta/" x:xmptk="Adobe XMP Core 5.3-c011 66.145661, 2012/02/06-14:56:27        ">
   <rdf:RDF xmlns:rdf="http://www.w3.org/1999/02/22-rdf-syntax-ns#">
      <rdf:Description rdf:about=""
            xmlns:xmpMM="http://ns.adobe.com/xap/1.0/mm/"
            xmlns:stRef="http://ns.adobe.com/xap/1.0/sType/ResourceRef#"
            xmlns:stEvt="http://ns.adobe.com/xap/1.0/sType/ResourceEvent#">
         <xmpMM:DerivedFrom rdf:parseType="Resource">
            <stRef:instanceID>xmp.iid:FB7F117407206811808381EA28C0188C</stRef:instanceID>
            <stRef:documentID>xmp.did:FB7F117407206811808381EA28C0188C</stRef:documentID>
            <stRef:originalDocumentID>xmp.did:FB7F117407206811808381EA28C0188C</stRef:originalDocumentID>
            <stRef:renditionClass>proof:pdf</stRef:renditionClass>
         </xmpMM:DerivedFrom>
         <xmpMM:DocumentID>xmp.did:FC7F117407206811808381EA28C0188C</xmpMM:DocumentID>
         <xmpMM:InstanceID>xmp.iid:FC7F117407206811808381EA28C0188C</xmpMM:InstanceID>
         <xmpMM:OriginalDocumentID>xmp.did:FB7F117407206811808381EA28C0188C</xmpMM:OriginalDocumentID>
         <xmpMM:History>
            <rdf:Seq>
               <rdf:li rdf:parseType="Resource">
                  <stEvt:action>saved</stEvt:action>
                  <stEvt:instanceID>xmp.iid:FB7F117407206811808381EA28C0188C</stEvt:instanceID>
                  <stEvt:when>2013-06-22T22:40:21-04:00</stEvt:when>
                  <stEvt:softwareAgent>Adobe Illustrator CS6 (Macintosh)</stEvt:softwareAgent>
                  <stEvt:changed>/</stEvt:changed>
               </rdf:li>
               <rdf:li rdf:parseType="Resource">
                  <stEvt:action>saved</stEvt:action>
                  <stEvt:instanceID>xmp.iid:FC7F117407206811808381EA28C0188C</stEvt:instanceID>
                  <stEvt:when>2013-06-22T22:42:33-04:00</stEvt:when>
                  <stEvt:softwareAgent>Adobe Illustrator CS6 (Macintosh)</stEvt:softwareAgent>
                  <stEvt:changed>/</stEvt:changed>
               </rdf:li>
            </rdf:Seq>
         </xmpMM:History>
         <xmpMM:RenditionClass>proof:pdf</xmpMM:RenditionClass>
      </rdf:Description>
      <rdf:Description rdf:about=""
            xmlns:dc="http://purl.org/dc/elements/1.1/">
         <dc:format>image/svg+xml</dc:format>
      </rdf:Description>
      <rdf:Description rdf:about=""
            xmlns:xmp="http://ns.adobe.com/xap/1.0/"
            xmlns:xmpGImg="http://ns.adobe.com/xap/1.0/g/img/">
         <xmp:CreatorTool>Adobe Illustrator CS6 (Macintosh)</xmp:CreatorTool>
         <xmp:CreateDate>2013-06-22T22:42:33-04:00</xmp:CreateDate>
         <xmp:MetadataDate>2013-06-22T22:42:33-04:00</xmp:MetadataDate>
         <xmp:ModifyDate>2013-06-22T22:42:33-04:00</xmp:ModifyDate>
         <xmp:Thumbnails>
            <rdf:Alt>
               <rdf:li rdf:parseType="Resource">
                  <xmpGImg:width>256</xmpGImg:width>
                  <xmpGImg:height>128</xmpGImg:height>
                  <xmpGImg:format>JPEG</xmpGImg:format>
                  <xmpGImg:image>/9j/4AAQSkZJRgABAgEASABIAAD/7QAsUGhvdG9zaG9wIDMuMAA4QklNA+0AAAAAABAASAAAAAEA&#xA;AQBIAAAAAQAB/+4ADkFkb2JlAGTAAAAAAf/bAIQABgQEBAUEBgUFBgkGBQYJCwgGBggLDAoKCwoK&#xA;DBAMDAwMDAwQDA4PEA8ODBMTFBQTExwbGxscHx8fHx8fHx8fHwEHBwcNDA0YEBAYGhURFRofHx8f&#xA;Hx8fHx8fHx8fHx8fHx8fHx8fHx8fHx8fHx8fHx8fHx8fHx8fHx8fHx8fHx8f/8AAEQgAgAEAAwER&#xA;AAIRAQMRAf/EAaIAAAAHAQEBAQEAAAAAAAAAAAQFAwIGAQAHCAkKCwEAAgIDAQEBAQEAAAAAAAAA&#xA;AQACAwQFBgcICQoLEAACAQMDAgQCBgcDBAIGAnMBAgMRBAAFIRIxQVEGE2EicYEUMpGhBxWxQiPB&#xA;UtHhMxZi8CRygvElQzRTkqKyY3PCNUQnk6OzNhdUZHTD0uIIJoMJChgZhJRFRqS0VtNVKBry4/PE&#xA;1OT0ZXWFlaW1xdXl9WZ2hpamtsbW5vY3R1dnd4eXp7fH1+f3OEhYaHiImKi4yNjo+Ck5SVlpeYmZ&#xA;qbnJ2en5KjpKWmp6ipqqusra6voRAAICAQIDBQUEBQYECAMDbQEAAhEDBCESMUEFURNhIgZxgZEy&#xA;obHwFMHR4SNCFVJicvEzJDRDghaSUyWiY7LCB3PSNeJEgxdUkwgJChgZJjZFGidkdFU38qOzwygp&#xA;0+PzhJSktMTU5PRldYWVpbXF1eX1RlZmdoaWprbG1ub2R1dnd4eXp7fH1+f3OEhYaHiImKi4yNjo&#xA;+DlJWWl5iZmpucnZ6fkqOkpaanqKmqq6ytrq+v/aAAwDAQACEQMRAD8A9U4q7FXYq7FXYq7FXYq7&#xA;FXYq7FXYq7FXYq7FXYq7FXYq7FXYq7FXYq7FXYq7FXYq7FXYq7FXYq7FXYq7FXYq7FXYq7FXYq7F&#xA;XYq7FXYq7FXYq7FXYq7FXYq7FXYq7FXYq7FXYq7FXYq7FXYq7FXYq7FXYq7FXYq7FXYq7FXYq7FX&#xA;Yq7FXYq7FXYq7FXYq7FXYq7FXYq7FXYq7FXYq7FXYq7FXYq7FXYq7FXYq7FXYq7FXYq7FXYq7FXY&#xA;q7FXYq7FXYq7FXYq7FXYq7FXYq7FXYq7FXYq7FXYq7FXYq7FXYq7FXYq7FXYq7FXYq7FXYq7FXYq&#xA;7FXYq7FXYq7FXYq7FXYq7FXYq7FXYq7FXYq7FXYq7FXYq7FXYq7FXYq7FXYq7FXYq7FXYq7FXYq7&#xA;FXYq7FXYq7FXYq7FXYq7FXYq7FXYq7FXYq7FXYq7FXYq7FXYq7FXYq7FXYq7FXYq7FXYq7FXYq7F&#xA;XYq7FXYq7FXYq7FXYq7FXYq7FXYq7FXYq7FXYq7FXYq7FXYq7FXYq7FXYq7FXYq7FXYq7FXYq7FX&#xA;Yq7FXYq7FXYq7FXYq7FXYq7FXYq7FXYq7FXYq7FXYq7FXYq7FXYq7FXYq7FXYq7FXYq7FXYq7FXY&#xA;q7FXYq7FXYq7FXYq7FXYq7FXYq7FXYq7FXYq7FXYq7FXYq7FXYq7FXYq7FXYq7FXYq7FXYq7FXYq&#xA;7FXYq7FXYq7FXYq7FXYq7FXYq7FXYq7FXYq7FXYq7FXYq7FXYq7FXYq7FXYq7FXYq7FXYq7FXYq7&#xA;FXYq7FXYq7FXYq7FXYq7FXYq7FXYq7FXYq7FXYq7FXYq7FXYq7FXYq7FXYq7FXYq7FXYq7FXYq7F&#xA;XYq7FXYq7FXYq7FXYq7FXYq7FXYq7FXYq7FXYq7FXYq7FXYq7FXYq7FXYq7FXYq7FXYq7FXYq7FX&#xA;Yq7FXYq7FXYq7FXYq7FXYq7FXYq7FXYq7FXYq7FXYq7FXYq7FXYq7FXYq7FXYq7FXYq7FXYq7FXY&#xA;q7FXYq7FXYq7FXYq7FXYq7FXYq7FXYq7FXYq7FXYq7FXYq7FXYq7FXYq7FXYq7FXYq7FXYq7FXYq&#xA;7FXYq7FXYq7FXYq7FXYq7FXYq7FXYq7FXYq7FXYq7FXYq7FXYq7FXYq7FXYq7FXYq7FXYq7FXYq7&#xA;FXYq7FXYq7FXYq7FXYq7FXYq7FXYq7FXYq7FXYq7FXYq7FXYq7FXYq7FXYq7FXYq7FXYq7FXYq7F&#xA;XYq7FXYq7FXYq7FXYq7FXYq7FXYq7FXYq7FXYq7FXYq7FX//2Q==</xmpGImg:image>
               </rdf:li>
            </rdf:Alt>
         </xmp:Thumbnails>
      </rdf:Description>
      <rdf:Description rdf:about=""
            xmlns:xmpTPg="http://ns.adobe.com/xap/1.0/t/pg/"
            xmlns:stDim="http://ns.adobe.com/xap/1.0/sType/Dimensions#"
            xmlns:xmpG="http://ns.adobe.com/xap/1.0/g/">
         <xmpTPg:MaxPageSize rdf:parseType="Resource">
            <stDim:w>305.666992</stDim:w>
            <stDim:h>149.666992</stDim:h>
            <stDim:unit>Points</stDim:unit>
         </xmpTPg:MaxPageSize>
         <xmpTPg:NPages>1</xmpTPg:NPages>
         <xmpTPg:HasVisibleTransparency>False</xmpTPg:HasVisibleTransparency>
         <xmpTPg:HasVisibleOverprint>False</xmpTPg:HasVisibleOverprint>
         <xmpTPg:SwatchGroups>
            <rdf:Seq>
               <rdf:li rdf:parseType="Resource">
                  <xmpG:groupName>Default Swatch Group</xmpG:groupName>
                  <xmpG:groupType>0</xmpG:groupType>
               </rdf:li>
            </rdf:Seq>
         </xmpTPg:SwatchGroups>
      </rdf:Description>
   </rdf:RDF>
</x:xmpmeta>
                                                                                                    
                                                                                                    
                                                                                                    
                                                                                                    
                                                                                                    
                                                                                                    
                                                                                                    
                                                                                                    
                                                                                                    
                                                                                                    
                                                                                                    
                                                                                                    
                                                                                                    
                                                                                                    
                                                                                                    
                                                                                                    
                                                                                                    
                                                                                                    
                                                                                                    
                                                                                                    
                           
<?xpacket end="w"?>
	</metadata>
<g id="Layer_2">
</g>
<g id="Layer_3">
	<path fill="#000000" d="M97.034,99.496c-1.041-3.662-1.558-7.626-1.558-11.89c0-9.074,1.994-16.344,5.986-21.812
		c3.99-5.466,9.922-8.2,17.794-8.2c3.826,0,7.216,0.849,10.168,2.542c2.952,1.697,5.412,3.936,7.38,6.724
		c1.968,2.788,3.444,5.986,4.428,9.594c0.984,3.607,1.476,7.326,1.476,11.152c0,3.718-0.41,7.354-1.23,10.906
		s-2.188,6.723-4.1,9.512c-1.914,2.787-4.346,5.059-7.298,6.806c-2.952,1.75-6.56,2.624-10.824,2.624
		c-3.828,0-7.19-0.764-10.086-2.296c-2.898-1.53-5.386-3.608-7.462-6.232C99.629,106.302,98.071,103.16,97.034,99.496z M305.667,0
		l-86,149.667H0L77.436,14.905v115.013h17.712v-11.644h0.328c1.419,2.844,3.198,5.14,5.33,6.888c2.132,1.75,4.51,3.172,7.134,4.264
		s5.384,1.83,8.282,2.214c2.896,0.382,5.766,0.574,8.61,0.574c6.232,0,11.644-1.229,16.236-3.689c4.592-2.46,8.39-5.74,11.398-9.84
		c3.006-4.101,5.249-8.828,6.724-14.187c1.476-5.355,2.214-10.878,2.214-16.563c0-6.232-0.82-12.08-2.46-17.549
		c-1.64-5.466-4.1-10.25-7.38-14.35c-3.28-4.1-7.408-7.324-12.382-9.676c-4.977-2.35-10.798-3.526-17.466-3.526
		c-2.406,0-4.838,0.302-7.298,0.902c-2.46,0.603-4.812,1.476-7.052,2.624c-2.242,1.148-4.292,2.542-6.15,4.182
		c-1.86,1.64-3.444,3.5-4.756,5.576h-0.328V12.822H78.632L86,0H305.667z M243.239,98.103h-18.697
		c-0.877,6.124-3.09,10.88-6.643,14.268c-3.553,3.391-8.062,5.084-13.529,5.084c-4.047,0-7.49-0.846-10.332-2.542
		c-2.844-1.694-5.166-3.907-6.971-6.642c-1.803-2.732-3.115-5.848-3.936-9.349c-0.82-3.497-1.23-6.995-1.23-10.496
		c0-6.45,0.764-11.669,2.297-15.662c1.529-3.99,3.443-7.106,5.74-9.348c2.295-2.24,4.811-3.772,7.543-4.592
		c2.732-0.82,5.303-1.23,7.709-1.23c5.248,0,9.594,1.34,13.037,4.018c3.445,2.681,5.549,6.642,6.314,11.89h18.697
		c-0.439-5.248-1.752-9.784-3.938-13.612c-2.188-3.826-5.002-6.996-8.445-9.512c-3.443-2.514-7.381-4.4-11.809-5.658
		c-4.428-1.255-9.102-1.886-14.021-1.886c-6.998,0-13.094,1.176-18.285,3.526c-5.195,2.353-9.541,5.576-13.039,9.676
		c-3.5,4.1-6.125,8.938-7.871,14.514c-1.75,5.576-2.625,11.537-2.625,17.876c0,6.232,0.902,12.028,2.707,17.384
		c1.803,5.358,4.453,9.979,7.953,13.858c3.498,3.882,7.791,6.944,12.875,9.184c5.084,2.24,10.959,3.362,17.629,3.362
		c10.932,0,19.705-2.924,26.322-8.773C237.306,117.593,241.487,109.146,243.239,98.103z M77.436,12.822v2.083l1.197-2.083H77.436z"
		/>
</g>
</svg>
