<?xml version="1.0" encoding="utf-8"?>
<!-- Generator: Adobe Illustrator 16.0.0, SVG Export Plug-In . SVG Version: 6.00 Build 0)  -->
<!DOCTYPE svg PUBLIC "-//W3C//DTD SVG 1.1//EN" "http://www.w3.org/Graphics/SVG/1.1/DTD/svg11.dtd">
<svg version="1.1" id="Layer_1" xmlns="http://www.w3.org/2000/svg" xmlns:xlink="http://www.w3.org/1999/xlink" x="0px" y="0px"
	 width="555.972px" height="114.863px" viewBox="27.892 32.873 555.972 114.863"
	 enable-background="new 27.892 32.873 555.972 114.863" xml:space="preserve">
<g>
	<g>
		<path fill="#FFFFFF" d="M101.534,90.707H67.222v18.598h12.553c0,6.973-3.625,17.973-12.134,17.973
			c-11.715,0-12.693-14.101-12.693-36.725c0-20.456,1.535-37.036,12.135-37.036c9.345,0,10.182,8.057,10.879,21.075h24.268
			c0-24.485-11.019-41.529-35.705-41.529c-30.544,0-38.633,30.837-38.633,60.125c0,31.922,10.601,54.549,36.542,54.549
			c7.53,0,16.177-3.565,21.756-10.696l3.995,8.367h11.349V90.707L101.534,90.707z"/>
		<path fill="#FFFFFF" d="M394.425,32.873c-29.568,0-38.633,29.133-38.633,57.336c0,28.202,9.063,57.335,38.633,57.335
			c29.567,0,38.634-29.134,38.634-57.335C433.059,62.006,423.992,32.873,394.425,32.873L394.425,32.873z M394.425,127.089
			c-11.576,0-11.576-15.185-11.576-36.879c0-21.694,0-36.882,11.576-36.882c11.577,0,11.577,15.188,11.577,36.882
			C406.002,111.904,406.002,127.089,394.425,127.089L394.425,127.089z"/>
		<path fill="#FFFFFF" d="M583.864,66.25c0-21.695-14.504-31.303-33.334-31.303h-37.38V145.28h25.104V97.555h8.37l12.412,47.728
			h24.826l-16.6-53.617C577.03,87.635,583.864,77.873,583.864,66.25L583.864,66.25z M543.138,79.038h-4.882V54.554h4.188
			c8.365,0,16.316,0.929,16.316,12.397C558.76,75.786,552.621,79.038,543.138,79.038L543.138,79.038z"/>
		<polygon fill="#FFFFFF" points="131.1,35.019 105.996,35.019 105.996,145.354 165.131,145.354 165.131,120.454 131.1,120.454 		
			"/>
		<polygon fill="#FFFFFF" points="311.062,35.035 301.993,87.245 292.929,35.066 251.75,35.066 251.75,145.398 277.03,145.398 
			277.03,61.098 277.308,61.098 293.068,145.398 303.839,145.398 303.839,145.367 310.92,145.367 326.681,61.068 326.959,61.068 
			326.959,145.367 352.24,145.367 352.24,35.035 		"/>
		<path fill="#FFFFFF" d="M483.088,35.019v76.551c0,8.332-2.497,15.432-10.779,15.49c-8.287-0.06-10.78-7.158-10.78-15.49V35.019
			h-25.104v75.309c0,23.712,9.861,37.391,32.907,37.379c1.042,0,2.065,0,3.062-0.057c0.997,0.057,1.728,0,2.769,0
			c22.733,0,33.031-13.61,33.031-37.322V35.019H483.088L483.088,35.019z"/>
		<path fill="#FFFFFF" d="M227.32,35.066h-37.996l-21.199,110.333h25.384l3.905-22.313h21.971h-0.155l3.905,22.313h25.384
			L227.32,35.066L227.32,35.066z M200.899,103.561l7.203-43.804l7.641,43.804H200.899L200.899,103.561z"/>
		<path fill="#FFFFFF" d="M580.083,34.889c1.819,0,3.343,1.437,3.343,3.32c0,1.918-1.522,3.353-3.343,3.353
			c-1.833,0-3.364-1.435-3.364-3.353C576.719,36.325,578.25,34.889,580.083,34.889L580.083,34.889z M580.083,41.071
			c1.542,0,2.736-1.231,2.736-2.862c0-1.597-1.194-2.83-2.736-2.83c-1.563,0-2.758,1.233-2.758,2.83
			C577.325,39.84,578.52,41.071,580.083,41.071L580.083,41.071z M578.78,36.271h1.507c0.927,0,1.365,0.366,1.365,1.117
			c0,0.703-0.448,0.998-1.025,1.06l1.115,1.722h-0.652l-1.062-1.677h-0.644v1.677h-0.604L578.78,36.271L578.78,36.271z
			 M579.385,38.001h0.633c0.538,0,1.03-0.026,1.03-0.642c0-0.517-0.448-0.598-0.859-0.598h-0.804V38.001L579.385,38.001z"/>
	</g>
</g>
</svg>
