<?xml version="1.0" encoding="utf-8"?>
<!-- Generator: Adobe Illustrator 17.0.0, SVG Export Plug-In . SVG Version: 6.00 Build 0)  -->
<!DOCTYPE svg PUBLIC "-//W3C//DTD SVG 1.1//EN" "http://www.w3.org/Graphics/SVG/1.1/DTD/svg11.dtd">
<svg version="1.1" id="Layer_1" xmlns="http://www.w3.org/2000/svg" xmlns:xlink="http://www.w3.org/1999/xlink" x="0px" y="0px"
	 width="200px" height="200px" viewBox="-135.282 -136.841 200 200" enable-background="new -135.282 -136.841 200 200"
	 xml:space="preserve">
<path fill="#FFFFFF" d="M-35.268-120.585c46.169,0,83.729,37.569,83.729,83.754c0,46.169-37.557,83.733-83.729,83.733
	c-46.185,0-83.758-37.561-83.758-83.733C-119.03-83.016-81.457-120.585-35.268-120.585 M-35.268-136.841
	c-55.227,0-100.014,44.791-100.014,100.01c0,55.244,44.791,99.99,100.014,99.99c55.236,0,99.986-44.746,99.986-99.99
	C64.713-92.059,19.967-136.841-35.268-136.841L-35.268-136.841z"/>
<polygon fill="#FFFFFF" points="-47.668,5.423 -47.668,-79.119 -1.499,-36.848 "/>
</svg>
