<?xml version="1.0" encoding="utf-8"?>
<!-- Generator: Adobe Illustrator 16.0.0, SVG Export Plug-In . SVG Version: 6.00 Build 0)  -->
<!DOCTYPE svg PUBLIC "-//W3C//DTD SVG 1.1//EN" "http://www.w3.org/Graphics/SVG/1.1/DTD/svg11.dtd">
<svg version="1.1" id="Calque_1" xmlns="http://www.w3.org/2000/svg" xmlns:xlink="http://www.w3.org/1999/xlink" x="0px" y="0px"
	 width="92.984px" height="40.383px" viewBox="0 0 92.984 40.383" enable-background="new 0 0 92.984 40.383" xml:space="preserve">
<metadata><?xpacket begin="﻿" id="W5M0MpCehiHzreSzNTczkc9d"?>
<x:xmpmeta xmlns:x="adobe:ns:meta/" x:xmptk="Adobe XMP Core 5.3-c011 66.145661, 2012/02/06-14:56:27        ">
   <rdf:RDF xmlns:rdf="http://www.w3.org/1999/02/22-rdf-syntax-ns#">
      <rdf:Description rdf:about=""
            xmlns:dc="http://purl.org/dc/elements/1.1/">
         <dc:format>image/svg+xml</dc:format>
      </rdf:Description>
      <rdf:Description rdf:about=""
            xmlns:xmp="http://ns.adobe.com/xap/1.0/"
            xmlns:xmpGImg="http://ns.adobe.com/xap/1.0/g/img/">
         <xmp:CreatorTool>Adobe Illustrator CS6 (Macintosh)</xmp:CreatorTool>
         <xmp:CreateDate>2013-06-22T19:55:10-04:00</xmp:CreateDate>
         <xmp:ModifyDate>2013-06-22T19:55:11-04:00</xmp:ModifyDate>
         <xmp:MetadataDate>2013-06-22T19:55:11-04:00</xmp:MetadataDate>
         <xmp:Thumbnails>
            <rdf:Alt>
               <rdf:li rdf:parseType="Resource">
                  <xmpGImg:width>256</xmpGImg:width>
                  <xmpGImg:height>112</xmpGImg:height>
                  <xmpGImg:format>JPEG</xmpGImg:format>
                  <xmpGImg:image>/9j/4AAQSkZJRgABAgEASABIAAD/7QAsUGhvdG9zaG9wIDMuMAA4QklNA+0AAAAAABAASAAAAAEA&#xA;AQBIAAAAAQAB/+4ADkFkb2JlAGTAAAAAAf/bAIQABgQEBAUEBgUFBgkGBQYJCwgGBggLDAoKCwoK&#xA;DBAMDAwMDAwQDA4PEA8ODBMTFBQTExwbGxscHx8fHx8fHx8fHwEHBwcNDA0YEBAYGhURFRofHx8f&#xA;Hx8fHx8fHx8fHx8fHx8fHx8fHx8fHx8fHx8fHx8fHx8fHx8fHx8fHx8fHx8f/8AAEQgAcAEAAwER&#xA;AAIRAQMRAf/EAaIAAAAHAQEBAQEAAAAAAAAAAAQFAwIGAQAHCAkKCwEAAgIDAQEBAQEAAAAAAAAA&#xA;AQACAwQFBgcICQoLEAACAQMDAgQCBgcDBAIGAnMBAgMRBAAFIRIxQVEGE2EicYEUMpGhBxWxQiPB&#xA;UtHhMxZi8CRygvElQzRTkqKyY3PCNUQnk6OzNhdUZHTD0uIIJoMJChgZhJRFRqS0VtNVKBry4/PE&#xA;1OT0ZXWFlaW1xdXl9WZ2hpamtsbW5vY3R1dnd4eXp7fH1+f3OEhYaHiImKi4yNjo+Ck5SVlpeYmZ&#xA;qbnJ2en5KjpKWmp6ipqqusra6voRAAICAQIDBQUEBQYECAMDbQEAAhEDBCESMUEFURNhIgZxgZEy&#xA;obHwFMHR4SNCFVJicvEzJDRDghaSUyWiY7LCB3PSNeJEgxdUkwgJChgZJjZFGidkdFU38qOzwygp&#xA;0+PzhJSktMTU5PRldYWVpbXF1eX1RlZmdoaWprbG1ub2R1dnd4eXp7fH1+f3OEhYaHiImKi4yNjo&#xA;+DlJWWl5iZmpucnZ6fkqOkpaanqKmqq6ytrq+v/aAAwDAQACEQMRAD8A9U4q7FXYq7FXYq7FXYq7&#xA;FXYq7FXYq7FXYq7FXYq7FXYq7FXYq7FXYq7FXYq7FXYq7FXYq7FXYq7FXYq7FXYq7FXYq7FXYq7F&#xA;XYq7FXYq7FXYq7FXYq7FXYq7FXYq7FXYq7FXYq7FXYq7FXYq7FXYq7FXYq7FXYq7FXYq7FXYq7FX&#xA;Yq7FXYq7FXYq7FXYq7FXYq7FXYq7FXYq7FXYq7FXYq7FXYq7FXYq7FXYq7FXYq7FXYq7FXYq7FXY&#xA;q7FXYq7FXYq7FXYq7FXYq7FXYq7FXYq7FXYq7FXYq7FXYq7FXYq7FXYq7FXYq7FXYq7FXYq7FXYq&#xA;7FXYq7FXYq7FXYq7FXYq7FXYq7FXYq7FXYq7FXYq7FXYq7FXYq7FXYq7FXYq7FXYq7FXYq7FXYq7&#xA;FXYq7FXYq7FXYq7FXYq7FXYq7FXYq7FXYq7FXYq7FXYq7FXYq7FXYq7FXYq7FXYq7FXYq7FXYq7F&#xA;XYq7FXYq7FXYq7FXYq7FXYq7FXYq7FXYq7FXYq7FXYq7FXYq7FXYq7FXYq7FXYq7FXYq7FXYq7FX&#xA;Yq7FXYq7FXYq7FXYq7FXYq7FXYq7FXYq7FXYq7FXYq7FXYq7FXYq7FXYq7FXYq7FXYq7FXYq7FXY&#xA;q7FXYq7FXYq7FXYq7FXYq7FXYq7FXYq7FXYq7FXYq7FXYq7FXYq7FXYq7FXYq7FXYq7FXYq7FXYq&#xA;7FXYq7FXYq7FXYq7FXYq7FXYq7FXYq7FXYq7FXYq7FXYq7FXYq7FXYq7FXYq7FXYq7FXYq7FXYq7&#xA;FXYq7FXYq7FXYq7FXYq7FXYq7FXYq7FXYq7FXYq7FXYq7FXYq7FXYq7FXYq7FXYq7FXYq7FXYq7F&#xA;XYq7FXYq7FXYq7FXYq7FXYq7FXYq7FXYq7FXYq7FXYq7FXYq7FXYq7FXYq7FXYq7FXYq7FXYq7FX&#xA;Yq7FXYq7FXYq7FXYq7FXYq7FXYq7FXYq7FXYq7FXYq7FXYq7FXYq7FXYq7FXYq7FXYq7FXYq7FXY&#xA;q7FXYq7FXYq7FXYq7FXYq7FXYq7FXYq7FXYq7FXYq7FXYq7FXYq7FXYq7FXYq7FXYq7FXYq7FXYq&#xA;7FXYq7FXYq7FXYq7FXYq7FXYq7FXYq7FXYq7FX//2Q==</xmpGImg:image>
               </rdf:li>
            </rdf:Alt>
         </xmp:Thumbnails>
      </rdf:Description>
      <rdf:Description rdf:about=""
            xmlns:xmpMM="http://ns.adobe.com/xap/1.0/mm/"
            xmlns:stRef="http://ns.adobe.com/xap/1.0/sType/ResourceRef#"
            xmlns:stEvt="http://ns.adobe.com/xap/1.0/sType/ResourceEvent#">
         <xmpMM:DocumentID>xmp.did:F87F117407206811808381EA28C0188C</xmpMM:DocumentID>
         <xmpMM:InstanceID>xmp.iid:F87F117407206811808381EA28C0188C</xmpMM:InstanceID>
         <xmpMM:DerivedFrom rdf:parseType="Resource">
            <stRef:instanceID>uuid:981E3EA93164DF118E6D90B556E55533</stRef:instanceID>
            <stRef:documentID>uuid:971E3EA93164DF118E6D90B556E55533</stRef:documentID>
            <stRef:originalDocumentID>uuid:971E3EA93164DF118E6D90B556E55533</stRef:originalDocumentID>
         </xmpMM:DerivedFrom>
         <xmpMM:OriginalDocumentID>uuid:971E3EA93164DF118E6D90B556E55533</xmpMM:OriginalDocumentID>
         <xmpMM:History>
            <rdf:Seq>
               <rdf:li rdf:parseType="Resource">
                  <stEvt:action>saved</stEvt:action>
                  <stEvt:instanceID>xmp.iid:F87F117407206811808381EA28C0188C</stEvt:instanceID>
                  <stEvt:when>2013-06-22T19:55:11-04:00</stEvt:when>
                  <stEvt:softwareAgent>Adobe Illustrator CS6 (Macintosh)</stEvt:softwareAgent>
                  <stEvt:changed>/</stEvt:changed>
               </rdf:li>
            </rdf:Seq>
         </xmpMM:History>
      </rdf:Description>
      <rdf:Description rdf:about=""
            xmlns:xmpTPg="http://ns.adobe.com/xap/1.0/t/pg/"
            xmlns:stDim="http://ns.adobe.com/xap/1.0/sType/Dimensions#"
            xmlns:xmpG="http://ns.adobe.com/xap/1.0/g/">
         <xmpTPg:MaxPageSize rdf:parseType="Resource">
            <stDim:w>92.984375</stDim:w>
            <stDim:h>40.382812</stDim:h>
            <stDim:unit>Points</stDim:unit>
         </xmpTPg:MaxPageSize>
         <xmpTPg:NPages>1</xmpTPg:NPages>
         <xmpTPg:HasVisibleTransparency>False</xmpTPg:HasVisibleTransparency>
         <xmpTPg:HasVisibleOverprint>False</xmpTPg:HasVisibleOverprint>
         <xmpTPg:SwatchGroups>
            <rdf:Seq>
               <rdf:li rdf:parseType="Resource">
                  <xmpG:groupName>Default Swatch Group</xmpG:groupName>
                  <xmpG:groupType>0</xmpG:groupType>
               </rdf:li>
            </rdf:Seq>
         </xmpTPg:SwatchGroups>
      </rdf:Description>
   </rdf:RDF>
</x:xmpmeta>
                                                                                                    
                                                                                                    
                                                                                                    
                                                                                                    
                                                                                                    
                                                                                                    
                                                                                                    
                                                                                                    
                                                                                                    
                                                                                                    
                                                                                                    
                                                                                                    
                                                                                                    
                                                                                                    
                                                                                                    
                                                                                                    
                                                                                                    
                                                                                                    
                                                                                                    
                                                                                                    
                           
<?xpacket end="w"?>
	</metadata>
<path fill="#000000" d="M1.053,24.152c-0.194,0-0.348,0.15-0.373,0.364L0,29.681l0.68,5.076c0.025,0.215,0.179,0.363,0.373,0.363
	c0.188,0,0.341-0.148,0.371-0.361l0,0v-0.001c0,0,0,0,0,0.001l0.806-5.078l-0.806-5.166C1.395,24.302,1.24,24.152,1.053,24.152z
	 M4.877,21.33c-0.032-0.222-0.191-0.375-0.387-0.375c-0.197,0-0.36,0.158-0.388,0.375c0,0.002-0.914,8.351-0.914,8.351l0.914,8.166
	c0.026,0.219,0.189,0.377,0.388,0.377c0.194,0,0.354-0.154,0.386-0.375l1.04-8.168L4.877,21.33z M19.281,13.627
	c-0.375,0-0.685,0.307-0.702,0.697L17.85,29.688l0.729,9.929c0.019,0.388,0.327,0.694,0.702,0.694c0.373,0,0.683-0.308,0.704-0.696
	v0.003l0.823-9.93l-0.823-15.364C19.963,13.934,19.654,13.627,19.281,13.627z M11.826,18.967c-0.288,0-0.523,0.23-0.547,0.537
	L10.46,29.685l0.819,9.849c0.022,0.305,0.259,0.534,0.547,0.534c0.284,0,0.52-0.229,0.545-0.534l0.932-9.849l-0.932-10.183
	C12.346,19.197,12.111,18.967,11.826,18.967z M26.857,40.31c0.465,0,0.844-0.375,0.862-0.854l0.714-9.763L27.72,9.238
	c-0.019-0.48-0.396-0.855-0.862-0.855c-0.469,0-0.848,0.376-0.862,0.856c0,0.001-0.634,20.453-0.634,20.453l0.634,9.766
	C26.01,39.935,26.389,40.31,26.857,40.31z M42.367,40.356c0.64,0,1.168-0.527,1.18-1.176v0.008v-0.008l0.498-9.481L43.547,6.075
	c-0.011-0.647-0.54-1.175-1.18-1.175c-0.642,0-1.171,0.527-1.181,1.176L40.742,29.69c0,0.016,0.444,9.496,0.444,9.496
	C41.197,39.829,41.727,40.356,42.367,40.356z M34.553,40.319c0.557,0,1.006-0.447,1.021-1.018v0.008l0.605-9.615L35.573,9.092
	c-0.016-0.57-0.465-1.016-1.021-1.016c-0.561,0-1.01,0.446-1.022,1.016l-0.538,20.604l0.539,9.611
	C33.543,39.872,33.992,40.319,34.553,40.319z M15.539,40.229c0.331,0,0.599-0.266,0.624-0.614l0.878-9.931l-0.878-9.448
	c-0.024-0.349-0.292-0.612-0.624-0.612c-0.336,0-0.604,0.265-0.625,0.616l-0.773,9.443l0.773,9.93
	C14.936,39.964,15.203,40.229,15.539,40.229z M8.143,39.685c0.242,0,0.438-0.19,0.466-0.455l0.986-9.547L8.61,19.774
	c-0.028-0.265-0.225-0.456-0.467-0.456c-0.245,0-0.44,0.192-0.466,0.456c0,0.001-0.868,9.909-0.868,9.909l0.868,9.545
	C7.701,39.493,7.897,39.685,8.143,39.685z M38.445,8.749c-0.604,0-1.09,0.481-1.102,1.097l-0.492,19.851l0.492,9.552
	c0.012,0.607,0.496,1.089,1.102,1.089c0.604,0,1.086-0.479,1.101-1.096v0.008l0.552-9.552L39.545,9.844
	C39.531,9.23,39.049,8.749,38.445,8.749z M23.055,40.33c0.418,0,0.763-0.341,0.783-0.776l0.768-9.863l-0.768-18.877
	c-0.021-0.436-0.365-0.776-0.783-0.776c-0.422,0-0.766,0.341-0.784,0.776c0,0.001-0.68,18.877-0.68,18.877l0.681,9.867
	C22.289,39.989,22.633,40.33,23.055,40.33z M31.631,39.399v-0.006l0.66-9.699L31.631,8.55c-0.016-0.525-0.43-0.937-0.941-0.937
	c-0.514,0-0.928,0.411-0.941,0.937l-0.586,21.143l0.587,9.705c0.014,0.521,0.428,0.932,0.94,0.932s0.924-0.411,0.941-0.934V39.399z
	 M81.549,17.506c-1.567,0-3.062,0.317-4.424,0.888C76.215,8.086,67.571,0,57.027,0c-2.58,0-5.095,0.508-7.315,1.367
	c-0.863,0.334-1.093,0.678-1.102,1.345v36.301c0.01,0.699,0.553,1.282,1.235,1.352c0.029,0.003,31.499,0.019,31.703,0.019
	c6.315,0,11.437-5.12,11.437-11.438C92.985,22.628,87.865,17.506,81.549,17.506z M46.272,2.68c-0.687,0-1.251,0.564-1.261,1.257
	l-0.516,25.765l0.517,9.351c0.009,0.683,0.573,1.246,1.26,1.246c0.686,0,1.249-0.563,1.259-1.256v0.011l0.562-9.352L47.531,3.935
	C47.521,3.244,46.957,2.68,46.272,2.68z"/>
</svg>
