<?xml version="1.0" encoding="utf-8"?>
<!-- Generator: Adobe Illustrator 15.1.0, SVG Export Plug-In . SVG Version: 6.00 Build 0)  -->
<!DOCTYPE svg PUBLIC "-//W3C//DTD SVG 1.1//EN" "http://www.w3.org/Graphics/SVG/1.1/DTD/svg11.dtd">
<svg version="1.1" id="Layer_1" xmlns="http://www.w3.org/2000/svg" xmlns:xlink="http://www.w3.org/1999/xlink" x="0px" y="0px"
	 width="512px" height="512px" viewBox="0 0 512 512" enable-background="new 0 0 512 512" xml:space="preserve">
<path fill="#000000" d="M368.424,169.11c-0.232-0.116-0.472-0.377-0.704-0.61c-13.976-12.452-30.396-18.402-49.276-17.69
	l-0.581-1.277c0.116-0.116,0.232-0.116,0.349-0.116c17.125-3.745,27.262-7.59,30.287-11.77c1.053-3.381-0.225-5.239-3.962-5.703
	c-8.62,1.045-16.544,2.786-23.647,5.471c8.976-5.471,12.466-9.317,10.484-11.305c-8.853,0.232-18.401,4.557-28.43,13.061
	c3.73-6.066,5.131-9.332,4.201-9.912c-4.774,3.149-8.976,6.531-12.582,10.13c-7.575,8.04-13.635,15.5-18.293,22.262l-0.232,0.581
	c-11.994,18.518-20.382,37.152-25.396,56.148l-1.857,1.408l-0.349,0.333c-7.227-8.62-15.847-15.833-26.209-21.681
	c-12.234-7.561-26.565-14.789-43.109-21.769c-18.054-8.853-36.346-16.196-54.871-21.899c-0.109,19.693,10.021,35.41,30.178,46.832
	v0.348c-7.111-0.13-13.983,0.929-20.622,2.917c1.277,18.286,14.912,30.868,40.773,37.849l-0.124,0.348
	c-10.13-0.566-18.518,2.815-25.042,9.796c8.504,15.847,23.532,23.409,45.322,22.828c-4.317,2.104-7.691,4.412-9.904,6.995
	c-3.962,3.962-5.246,8.635-3.962,13.976c4.658,8.04,13.046,11.755,25.396,11.189l0,0l0.697,0.812
	c-0.116,0.116-0.232,0.232-0.348,0.349c-21.319,20.97-47.064,30.403-77.243,28.43l-0.464,0.232
	c-18.402-0.131-38.088-8.505-59.407-25.281c21.435,29.345,49.858,50.547,85.043,63.841c40.301,12.698,80.617,13.627,120.801,2.786
	h0.696c39.031-10.725,72.113-32.74,99.367-66.046c12.582-17.474,20.506-34.119,23.655-50.098
	c20.383,0.697,35.062-4.891,44.146-16.761l-0.225-0.363c-6.763,2.322-20.042,1.64-39.735-2.206v-2.104c0-0.102,0-0.102,0.123,0
	c21.552-2.322,34.25-8.954,38.328-19.925c-15.035,5.602-29.83,5.703-44.51,0.479C394.518,202.648,384.968,185.059,368.424,169.11z"
	/>
</svg>
