<?xml version="1.0" encoding="utf-8"?>
<!-- Generator: Adobe Illustrator 17.0.0, SVG Export Plug-In . SVG Version: 6.00 Build 0)  -->
<!DOCTYPE svg PUBLIC "-//W3C//DTD SVG 1.1//EN" "http://www.w3.org/Graphics/SVG/1.1/DTD/svg11.dtd">
<svg version="1.1" id="Layer_1" xmlns="http://www.w3.org/2000/svg" xmlns:xlink="http://www.w3.org/1999/xlink" x="0px" y="0px"
	 width="441px" height="124.682px" viewBox="0 0 441 124.682" enable-background="new 0 0 441 124.682" xml:space="preserve">
<g>
	<path d="M98.585,58.665c-0.44,9.605-7.146,22.756-20.116,39.449c-13.411,17.436-24.756,26.154-34.038,26.154
		c-5.747,0-10.615-5.308-14.588-15.929c-2.654-9.734-5.308-19.469-7.961-29.202c-2.952-10.615-6.116-15.929-9.501-15.929
		c-0.738,0-3.32,1.554-7.741,4.647L0,61.875c4.867-4.278,9.669-8.557,14.394-12.841c6.491-5.611,11.365-8.562,14.614-8.86
		c7.676-0.738,12.401,4.511,14.174,15.747c1.916,12.123,3.242,19.663,3.987,22.614c2.213,10.058,4.647,15.081,7.307,15.081
		c2.064,0,5.164-3.263,9.301-9.786c4.129-6.524,6.343-11.488,6.64-14.899c0.589-5.631-1.625-8.453-6.64-8.453
		c-2.363,0-4.796,0.544-7.301,1.618c4.848-15.883,14.109-23.598,27.779-23.158C94.391,39.235,99.168,45.811,98.585,58.665z"/>
	<path d="M159.463,89.776c-4.136,7.818-9.818,14.899-17.054,21.242c-9.897,8.557-19.786,12.835-29.675,12.835
		c-4.582,0-8.09-1.476-10.524-4.428c-2.434-2.951-3.579-6.782-3.43-11.508c0.142-4.866,1.657-12.394,4.537-22.575
		c2.88-10.181,4.324-15.643,4.324-16.381c0-3.832-1.333-5.754-3.987-5.754c-0.887,0-3.398,1.554-7.534,4.647l-5.094-5.98
		c4.725-4.278,9.449-8.557,14.174-12.841c6.349-5.611,11.074-8.562,14.181-8.86c4.867-0.44,8.446,0.99,10.737,4.304
		c2.285,3.313,3.133,7.611,2.55,12.906c-1.922,8.977-3.994,20.374-6.207,34.199c-0.149,6.33,2.142,9.488,6.867,9.488
		c2.064,0,5.753-2.181,11.074-6.556c4.427-3.638,8.045-7.062,10.854-10.271L159.463,89.776z M140.195,11.016
		c-0.148,3.676-1.993,7.204-5.54,10.582c-3.987,3.818-8.712,5.728-14.174,5.728c-8.414,0-12.479-3.67-12.181-11.016
		c0.142-3.818,2.394-7.495,6.75-11.022C119.407,1.767,124.241,0,129.561,0c3.1,0,5.683,1.217,7.754,3.638
		C139.38,6.064,140.338,8.524,140.195,11.016z"/>
	<path d="M297.772,89.776c-4.136,7.818-9.818,14.899-17.055,21.242c-9.896,8.557-19.786,12.835-29.675,12.835
		c-9.605,0-14.252-5.308-13.955-15.936c0.143-4.725,1.068-10.4,2.764-17.041c1.696-6.641,2.622-11.806,2.771-15.494
		c0.149-5.605-1.554-8.414-5.113-8.414c-3.851,0-8.439,4.582-13.772,13.733c-5.631,9.599-8.673,18.899-9.113,27.902
		c-0.297,6.355,0.324,11.229,1.864,14.621c-10.304,0.298-17.521-1.404-21.638-5.094c-3.689-3.249-5.378-8.634-5.081-16.168
		c0.142-4.725,0.867-9.449,2.174-14.174c1.301-4.725,2.026-8.932,2.175-12.628c0.298-5.462-1.702-8.193-5.987-8.193
		c-3.702,0-7.695,4.213-11.98,12.627c-4.285,8.414-6.653,17.203-7.094,26.355c-0.298,8.271,0.233,14.025,1.586,17.274
		c-10.136,0.298-17.333-1.839-21.592-6.408c-3.534-3.824-5.145-9.637-4.848-17.442c0.143-3.825,0.815-9.165,2.032-16.013
		c1.217-6.848,1.896-12.181,2.039-16.012c0.291-2.647-0.375-3.975-1.994-3.975c-0.887,0-3.398,1.495-7.534,4.479l-5.313-5.98
		c0.738-0.583,5.385-4.867,13.954-12.841c6.2-5.753,10.407-8.705,12.621-8.854c3.838-0.297,6.939,1.288,9.301,4.757
		c2.362,3.469,3.547,7.495,3.547,12.071c0,1.476-0.149,2.88-0.44,4.207c2.213-3.392,4.796-6.35,7.753-8.861
		c6.79-5.902,14.395-9.229,22.809-9.967c7.236-0.589,12.401,1.107,15.508,5.094c2.504,3.249,3.683,7.903,3.54,13.954
		c1.036-0.88,2.143-1.844,3.327-2.88c3.392-3.987,6.712-7.158,9.961-9.521c5.462-3.987,11.151-6.2,17.054-6.647
		c7.087-0.589,12.181,1.101,15.281,5.074c2.653,3.236,3.838,7.871,3.547,13.896c-0.149,4.123-1.146,10.117-2.99,17.987
		c-1.852,7.87-2.771,12.388-2.771,13.565c-0.148,3.094,0.15,5.224,0.887,6.401c0.738,1.178,2.505,1.76,5.314,1.76
		c2.065,0,5.753-2.181,11.073-6.556c4.428-3.638,8.045-7.062,10.854-10.271L297.772,89.776z"/>
	<path d="M380.824,89.55c-4.285,7.081-12.698,14.155-25.248,21.229c-15.65,8.996-31.526,13.488-47.616,13.488
		c-11.961,0-20.53-3.987-25.695-11.954c-3.689-5.463-5.463-11.955-5.313-19.488c0.143-11.954,5.463-23.319,15.947-34.103
		c11.515-11.805,25.1-17.714,40.75-17.714c14.472,0,22.147,5.896,23.034,17.676c0.589,7.507-3.547,15.242-12.4,23.197
		c-9.456,8.692-21.346,14.213-35.662,16.568c2.653,3.683,6.64,5.521,11.96,5.521c10.628,0,22.22-2.699,34.775-8.11
		c9.003-3.799,16.091-7.747,21.262-11.838L380.824,89.55z M330.548,66.425c0.143-3.961-1.476-5.948-4.867-5.948
		c-4.427,0-8.919,3.049-13.488,9.146s-6.932,11.935-7.074,17.514c-0.084,0-0.084,0.958,0,2.867
		c7.223-2.641,13.488-6.679,18.796-12.116C328.186,73.188,330.398,69.363,330.548,66.425z"/>
	<path d="M440.946,74.703c-0.595,13.565-5.611,25.287-15.06,35.163c-9.449,9.877-21.191,14.815-35.216,14.815
		c-11.663,0-20.523-3.761-26.575-11.281c-4.427-5.599-6.867-12.602-7.307-21.002c-0.744-12.68,3.831-24.33,13.733-34.944
		c10.628-11.793,23.986-17.688,40.083-17.688c10.33,0,18.155,3.469,23.475,10.394C439.102,56.503,441.387,64.684,440.946,74.703z
		 M415.918,73.868c0.149-3.993-0.407-7.657-1.663-10.984c-1.256-3.327-3.067-4.997-5.424-4.997c-7.533,0-13.734,4.071-18.601,12.207
		c-4.143,6.66-6.357,13.76-6.648,21.3c-0.148,3.702,0.518,6.958,1.993,9.767c1.618,3.256,3.909,4.88,6.867,4.88
		c6.641,0,12.33-3.915,17.055-11.76C413.484,87.771,415.621,80.968,415.918,73.868z"/>
</g>
</svg>
