<?xml version="1.0" encoding="utf-8"?>
<!-- Generator: Adobe Illustrator 17.0.0, SVG Export Plug-In . SVG Version: 6.00 Build 0)  -->
<!DOCTYPE svg PUBLIC "-//W3C//DTD SVG 1.1//EN" "http://www.w3.org/Graphics/SVG/1.1/DTD/svg11.dtd">
<svg version="1.1" id="Layer_1" xmlns="http://www.w3.org/2000/svg" xmlns:xlink="http://www.w3.org/1999/xlink" x="0px" y="0px"
	 width="147.745px" height="61.559px" viewBox="0 0 147.745 61.559" enable-background="new 0 0 147.745 61.559"
	 xml:space="preserve">
<g>
	<path opacity="0.3" fill="#040303" d="M135.979,29.381v2.691h-5.268v-2.691c0-2.689,0.881-4.033,2.641-4.033
		C135.099,25.347,135.979,26.691,135.979,29.381z M113.802,25.347c-0.867,0-1.746,0.412-2.627,1.281v17.722
		c0.881,0.881,1.76,1.297,2.627,1.297c1.52,0,2.293-1.297,2.293-3.924V29.316C116.095,26.691,115.321,25.347,113.802,25.347z
		 M147.745,31.176c0,6.799-0.01,14.005-1.527,20.609c-1.066,4.637-4.859,8.057-9.424,8.566c-10.811,1.207-21.752,1.213-32.646,1.207
		c-10.894,0.006-21.837,0-32.647-1.207c-4.564-0.51-8.356-3.93-9.422-8.566c-1.518-6.604-1.518-13.81-1.518-20.609
		c0-6.799,0.018-14.006,1.535-20.609C63.162,5.929,66.953,2.509,71.518,2c10.81-1.208,21.753-1.214,32.647-1.208
		c10.894-0.006,21.836,0,32.646,1.208c4.564,0.51,8.357,3.93,9.424,8.566C147.753,17.17,147.745,24.377,147.745,31.176z
		 M85.428,11.012H67.06v5.493h6.197v33.531h5.86V16.506h6.311V11.012z M101.347,20.959h-5.271v22.224
		c-1.17,1.65-2.273,2.465-3.332,2.465c-0.702,0-1.103-0.416-1.231-1.232c-0.049-0.172-0.049-0.814-0.049-2.049V20.959h-5.268V43.95
		c0,2.053,0.176,3.443,0.465,4.324c0.527,1.473,1.696,2.162,3.395,2.162c1.938,0,3.925-1.17,6.021-3.572v3.172h5.271V20.959z
		 M121.362,29.732c0-2.754-0.18-4.676-0.531-5.846c-0.703-2.178-2.113-3.281-4.211-3.281c-1.938,0-3.744,1.059-5.445,3.152V11.012
		h-5.268v39.024h5.268v-2.818c1.76,2.178,3.572,3.219,5.445,3.219c2.098,0,3.508-1.105,4.211-3.268
		c0.352-1.232,0.531-3.17,0.531-5.859V29.732z M141.247,30.437c0-3.108-0.527-5.381-1.629-6.852c-1.477-1.99-3.574-2.98-6.217-2.98
		c-2.689,0-4.787,0.99-6.31,2.98c-1.119,1.471-1.629,3.744-1.629,6.852V40.62c0,3.09,0.574,5.383,1.693,6.838
		c1.523,1.986,3.621,2.978,6.377,2.978c2.752,0,4.914-1.041,6.371-3.152c0.641-0.932,1.055-1.988,1.232-3.156
		c0.047-0.527,0.111-1.697,0.111-3.395v-0.77h-5.375c0,2.113-0.068,3.283-0.117,3.57c-0.301,1.408-1.057,2.113-2.354,2.113
		c-1.808,0-2.689-1.344-2.689-4.035v-5.154h10.535V30.437z M13.3,34.062v15.97H7.394v-15.97c-0.535-2.828-1.716-6.975-3.609-12.475
		C2.54,17.929,1.244,14.258,0,10.6h6.213l4.191,15.485L14.433,10.6h5.97L13.3,34.062z M34.529,47.429
		c-1.473,2.004-3.545,3.008-6.213,3.008c-2.652,0-4.726-1.004-6.197-3.008c-1.133-1.471-1.668-3.787-1.668-6.91v-10.29
		c0-3.141,0.535-5.438,1.668-6.922c1.472-2.01,3.545-3.012,6.197-3.012c2.668,0,4.74,1.002,6.213,3.012
		c1.116,1.484,1.652,3.781,1.652,6.922v10.29C36.182,43.642,35.646,45.958,34.529,47.429z M30.856,29.16
		c0-2.719-0.823-4.074-2.54-4.074c-1.717,0-2.541,1.356-2.541,4.074v12.361c0,2.719,0.824,4.078,2.541,4.078
		c1.717,0,2.54-1.359,2.54-4.078V29.16z M50.547,50.032v-3.205c-2.119,2.43-4.141,3.609-6.083,3.609
		c-1.714,0-2.896-0.695-3.428-2.184c-0.294-0.891-0.473-2.295-0.473-4.369V20.648h5.308v21.634c0,1.248,0,1.896,0.064,2.07
		c0.117,0.824,0.535,1.246,1.25,1.246c1.065,0,2.182-0.824,3.361-2.492V20.648h5.325v29.384H50.547z"/>
	<linearGradient id="SVGID_1_" gradientUnits="userSpaceOnUse" x1="73.8726" y1="60.7675" x2="73.8726" y2="-1.449735e-09">
		<stop  offset="0" style="stop-color:#3E3D3D"/>
		<stop  offset="0.0823" style="stop-color:#383737"/>
		<stop  offset="0.2515" style="stop-color:#2F2D2D"/>
		<stop  offset="0.4403" style="stop-color:#292526"/>
		<stop  offset="0.6624" style="stop-color:#242121"/>
		<stop  offset="1" style="stop-color:#231F20"/>
	</linearGradient>
	<path fill="url(#SVGID_1_)" d="M135.979,28.59v2.691h-5.268V28.59c0-2.689,0.881-4.033,2.641-4.033
		C135.099,24.556,135.979,25.9,135.979,28.59z M113.802,24.556c-0.867,0-1.746,0.412-2.627,1.281V43.56
		c0.881,0.881,1.76,1.297,2.627,1.297c1.52,0,2.293-1.297,2.293-3.924V28.525C116.095,25.9,115.321,24.556,113.802,24.556z
		 M147.745,30.384c0,6.799-0.01,14.005-1.527,20.609c-1.066,4.637-4.859,8.057-9.424,8.566c-10.811,1.207-21.752,1.213-32.646,1.207
		c-10.894,0.006-21.837,0-32.647-1.207c-4.564-0.51-8.356-3.93-9.422-8.566c-1.518-6.604-1.518-13.81-1.518-20.609
		c0-6.799,0.018-14.006,1.535-20.609c1.066-4.637,4.857-8.057,9.422-8.566c10.81-1.208,21.753-1.214,32.647-1.208
		c10.894-0.006,21.836,0,32.646,1.208c4.564,0.51,8.357,3.93,9.424,8.566C147.753,16.379,147.745,23.586,147.745,30.384z
		 M85.428,10.221H67.059v5.493h6.197v33.531h5.861V15.715h6.311V10.221z M101.347,20.168h-5.271v22.224
		c-1.17,1.65-2.273,2.465-3.332,2.465c-0.703,0-1.104-0.416-1.232-1.232c-0.049-0.172-0.049-0.814-0.049-2.049V20.168h-5.267v22.992
		c0,2.053,0.176,3.443,0.465,4.324c0.527,1.473,1.695,2.162,3.395,2.162c1.937,0,3.925-1.17,6.021-3.572v3.172h5.271V20.168z
		 M121.362,28.941c0-2.754-0.18-4.676-0.531-5.846c-0.703-2.178-2.113-3.281-4.211-3.281c-1.938,0-3.744,1.059-5.445,3.152V10.221
		h-5.268v39.024h5.268v-2.818c1.76,2.178,3.572,3.219,5.445,3.219c2.098,0,3.508-1.106,4.211-3.268
		c0.352-1.232,0.531-3.17,0.531-5.859V28.941z M141.247,29.646c0-3.108-0.527-5.381-1.629-6.852
		c-1.477-1.99-3.574-2.981-6.217-2.981c-2.689,0-4.787,0.99-6.31,2.981c-1.119,1.471-1.629,3.744-1.629,6.852v10.183
		c0,3.09,0.574,5.383,1.693,6.838c1.523,1.986,3.621,2.979,6.377,2.979c2.752,0,4.914-1.041,6.371-3.152
		c0.641-0.932,1.055-1.988,1.232-3.156c0.047-0.527,0.111-1.697,0.111-3.395v-0.77h-5.375c0,2.113-0.068,3.283-0.117,3.57
		c-0.301,1.408-1.057,2.113-2.354,2.113c-1.808,0-2.689-1.344-2.689-4.035v-5.154h10.535V29.646z M13.299,33.271v15.97H7.394v-15.97
		c-0.535-2.828-1.717-6.975-3.609-12.475C2.539,17.138,1.244,13.467,0,9.809h6.213l4.191,15.485l4.027-15.485h5.971L13.299,33.271z
		 M34.529,46.638c-1.473,2.004-3.545,3.008-6.213,3.008c-2.652,0-4.727-1.004-6.197-3.008c-1.133-1.471-1.668-3.787-1.668-6.91
		v-10.29c0-3.141,0.535-5.438,1.668-6.922c1.471-2.01,3.545-3.012,6.197-3.012c2.668,0,4.74,1.002,6.213,3.012
		c1.115,1.484,1.652,3.781,1.652,6.922v10.29C36.182,42.851,35.645,45.167,34.529,46.638z M30.855,28.369
		c0-2.719-0.822-4.074-2.539-4.074c-1.717,0-2.541,1.355-2.541,4.074V40.73c0,2.719,0.824,4.078,2.541,4.078
		c1.717,0,2.539-1.359,2.539-4.078V28.369z M50.547,49.241v-3.205c-2.119,2.43-4.141,3.609-6.084,3.609
		c-1.713,0-2.897-0.695-3.428-2.184c-0.293-0.891-0.473-2.295-0.473-4.369V19.857h5.309v21.634c0,1.248,0,1.896,0.064,2.07
		c0.117,0.824,0.535,1.246,1.25,1.246c1.065,0,2.182-0.824,3.361-2.492V19.857h5.324v29.384H50.547z"/>
</g>
</svg>
