<?xml version="1.0" encoding="utf-8"?>
<!-- Generator: Adobe Illustrator 15.1.0, SVG Export Plug-In . SVG Version: 6.00 Build 0)  -->
<!DOCTYPE svg PUBLIC "-//W3C//DTD SVG 1.1//EN" "http://www.w3.org/Graphics/SVG/1.1/DTD/svg11.dtd">
<svg version="1.1" id="Layer_1" xmlns="http://www.w3.org/2000/svg" xmlns:xlink="http://www.w3.org/1999/xlink" x="0px" y="0px"
	 width="512px" height="512px" viewBox="0 0 512 512" enable-background="new 0 0 512 512" xml:space="preserve">
<g>
	<rect x="205.902" y="163.346" fill="#000000" width="41.88" height="174.788"/>
	<rect x="262.07" y="212.281" fill="#000000" width="41.893" height="125.853"/>
	<g>
		<g>
			<path fill="#000000" d="M130.064,209.683c-8.391,0-16.353,1.563-23.699,4.407v-50.744H64.49c0,0,0.022,111.83,0.022,111.857
				c0,36.187,29.342,65.52,65.552,65.52c36.178,0,65.511-29.333,65.511-65.52C195.575,239.006,166.242,209.683,130.064,209.683z
				 M130.064,298.482c-12.88,0-23.28-10.445-23.28-23.279c0-12.862,10.4-23.258,23.28-23.258c12.839,0,23.257,10.396,23.257,23.258
				C153.322,288.037,142.903,298.482,130.064,298.482z"/>
		</g>
	</g>
	<g>
		<g>
			<path fill="#000000" d="M382.008,209.683c-36.197,0-65.529,29.333-65.529,65.521c0,0.027-0.037,111.843-0.037,111.843h41.885
				V336.32c7.355,2.844,15.332,4.402,23.682,4.402c36.195,0,65.537-29.324,65.537-65.52
				C447.545,239.016,418.203,209.683,382.008,209.683z M382.008,298.482c-12.844,0-23.263-10.445-23.263-23.279
				c0-12.862,10.419-23.258,23.263-23.258c12.852,0,23.271,10.396,23.271,23.258C405.278,288.037,394.859,298.482,382.008,298.482z"
				/>
		</g>
	</g>
	<path fill="#000000" d="M354.461,150.357c0-14.028-11.375-25.404-25.412-25.404c-14.029,0-25.404,11.375-25.404,25.404
		c0,14.038,11.375,25.413,25.404,25.413C343.086,175.77,354.461,164.395,354.461,150.357z"/>
</g>
</svg>
