<?xml version="1.0" encoding="utf-8"?>
<!-- Generator: Adobe Illustrator 16.0.0, SVG Export Plug-In . SVG Version: 6.00 Build 0)  -->
<!DOCTYPE svg PUBLIC "-//W3C//DTD SVG 1.1//EN" "http://www.w3.org/Graphics/SVG/1.1/DTD/svg11.dtd">
<svg version="1.1" id="Layer_1" xmlns="http://www.w3.org/2000/svg" xmlns:xlink="http://www.w3.org/1999/xlink" x="0px" y="0px"
	 width="412px" height="410.5px" viewBox="0 0 412 410.5" enable-background="new 0 0 412 410.5" xml:space="preserve">
<path id="video-icon" d="M0,9.345v391.312h412V9.345H0z M87.408,359.862H42.354v-38.747h45.055L87.408,359.862L87.408,359.862z
	 M87.408,292.278H42.354v-38.747h45.055L87.408,292.278L87.408,292.278z M87.408,224.372H42.354v-38.747h45.055L87.408,224.372
	L87.408,224.372z M87.408,157.111H42.354v-38.748h45.055L87.408,157.111L87.408,157.111z M87.408,89.526H42.354V50.779h45.055
	L87.408,89.526L87.408,89.526z M287.646,359.862H127.961V224.693h159.686V359.862z M287.646,185.947H127.961V50.779h159.686V185.947
	z M373.253,359.862h-45.054v-38.747h45.054V359.862z M373.253,292.278h-45.054v-38.747h45.054V292.278z M373.253,224.372h-45.054
	v-38.747h45.054V224.372z M373.253,157.111h-45.054v-38.748h45.054V157.111z M373.253,89.526h-45.054V50.779h45.054V89.526z"/>
</svg>
