<?xml version="1.0" encoding="utf-8"?>
<!-- Generator: Adobe Illustrator 15.1.0, SVG Export Plug-In . SVG Version: 6.00 Build 0)  -->
<!DOCTYPE svg PUBLIC "-//W3C//DTD SVG 1.1//EN" "http://www.w3.org/Graphics/SVG/1.1/DTD/svg11.dtd">
<svg version="1.1" id="Layer_1" xmlns="http://www.w3.org/2000/svg" xmlns:xlink="http://www.w3.org/1999/xlink" x="0px" y="0px"
	 width="167px" height="167px" viewBox="0 0 167 167" enable-background="new 0 0 167 167" xml:space="preserve">
<g>
	<path fill-rule="evenodd" clip-rule="evenodd" fill="#000000" d="M48.809,30.636h73.384c6.97,0,12.672,5.702,12.672,12.672v73.385
		c0,6.97-5.702,12.672-12.672,12.672H48.809c-6.971,0-12.673-5.702-12.673-12.672V43.308C36.136,36.338,41.838,30.636,48.809,30.636
		L48.809,30.636z M108.056,41.605c-2.445,0-4.444,1.999-4.444,4.444v10.639c0,2.444,1.999,4.444,4.444,4.444h11.159
		c2.444,0,4.444-2,4.444-4.444V46.05c0-2.445-2-4.444-4.444-4.444H108.056L108.056,41.605z M123.706,72.387h-8.69
		c0.822,2.686,1.267,5.527,1.267,8.472c0,16.422-13.74,29.733-30.688,29.733c-16.947,0-30.688-13.312-30.688-29.733
		c0-2.944,0.444-5.786,1.267-8.472h-9.067v41.705c0,2.158,1.766,3.925,3.925,3.925h68.751c2.158,0,3.925-1.767,3.925-3.925V72.387
		L123.706,72.387z M85.594,60.573c-10.95,0-19.828,8.603-19.828,19.212c0,10.611,8.878,19.213,19.828,19.213
		c10.951,0,19.829-8.602,19.829-19.213C105.423,69.176,96.545,60.573,85.594,60.573z"/>
</g>
</svg>
