<?xml version="1.0" encoding="utf-8"?>
<!-- Generator: Adobe Illustrator 15.1.0, SVG Export Plug-In . SVG Version: 6.00 Build 0)  -->
<!DOCTYPE svg PUBLIC "-//W3C//DTD SVG 1.1//EN" "http://www.w3.org/Graphics/SVG/1.1/DTD/svg11.dtd">
<svg version="1.1" xmlns="http://www.w3.org/2000/svg" xmlns:xlink="http://www.w3.org/1999/xlink" x="0px" y="0px"
	 width="284.985px" height="181.491px" viewBox="0 0 284.985 181.491" enable-background="new 0 0 284.985 181.491"
	 xml:space="preserve">
<g id="rekjavik">
	<g>
		<path fill="#FFFFFF" d="M138.684,34.255l22.8,6.734c2.144,0.609,3.824,1.384,5.044,2.334c1.242,0.968,2.193,2.237,2.853,3.804
			c0.808,1.918,1.009,3.88,0.592,5.878c-0.399,1.994-1.366,3.755-2.893,5.281c-0.418,0.428-0.789,0.757-1.117,0.99
			c-0.455,0.333-0.927,0.632-1.412,0.901c-0.553,0.295-1.229,0.627-2.032,1c-2.8-0.596-4.789-1.025-5.968-1.285
			c-1.178-0.257-2.581-0.578-4.205-0.962c-2.641-0.631-5.241-1.353-7.801-2.16c-2.486-0.744-4.52-1.484-6.104-2.216
			c-1.545-0.687-2.726-1.359-3.54-2.022c-0.661-0.555-1.268-1.212-1.823-1.968c-0.568-0.752-1.006-1.497-1.318-2.23
			c-0.856-2.03-1.078-4.013-0.667-5.945c0.405-1.949,1.387-3.703,2.95-5.258c0.617-0.59,1.261-1.097,1.932-1.521
			C136.636,35.205,137.542,34.754,138.684,34.255 M141.186,70.174l-5.569-13.202l22.416,6.097L141.186,70.174z M163.608,38.584
			l-20.983-6.229l15.585-6.572L163.608,38.584z"/>
		
			<rect x="111.592" y="42.787" transform="matrix(-0.9214 0.3886 -0.3886 -0.9214 256.4774 67.9866)" fill="#FFFFFF" width="19.542" height="34.285"/>
		<polygon fill="#FFFFFF" points="75.898,97.705 62.577,66.116 80.425,58.588 86.467,72.911 89.09,71.806 83.049,57.482 
			100.938,49.937 114.26,81.529 96.331,89.09 90.155,74.446 87.531,75.552 93.708,90.195 		"/>
		<polygon fill="#FFFFFF" points="28.298,97.351 22.292,83.105 58.729,67.739 64.721,81.94 50.248,72.969 50.166,73.002 
			62.897,103.189 44.77,110.834 32.038,80.646 31.959,80.682 		"/>
		
			<rect x="126.896" y="78.969" transform="matrix(-0.9215 0.3885 -0.3885 -0.9215 299.9397 131.584)" fill="#FFFFFF" width="19.546" height="34.285"/>
		<path fill="#FFFFFF" d="M153.98,70.44l22.803,6.737c2.141,0.603,3.822,1.384,5.041,2.333c1.242,0.969,2.194,2.233,2.854,3.798
			c0.812,1.924,1.008,3.884,0.592,5.886c-0.398,1.994-1.365,3.752-2.892,5.278c-0.421,0.427-0.791,0.757-1.117,0.99
			c-0.456,0.333-0.927,0.634-1.412,0.901c-0.553,0.297-1.23,0.63-2.032,1.001c-2.801-0.596-4.79-1.027-5.968-1.284
			c-1.182-0.259-2.58-0.581-4.207-0.962c-2.64-0.634-5.241-1.353-7.801-2.161c-2.484-0.746-4.519-1.484-6.099-2.219
			c-1.55-0.684-2.73-1.357-3.544-2.021c-0.661-0.555-1.268-1.21-1.822-1.968c-0.569-0.752-1.01-1.494-1.319-2.23
			c-0.856-2.028-1.078-4.013-0.667-5.947c0.405-1.948,1.39-3.699,2.949-5.256c0.618-0.589,1.261-1.097,1.932-1.521
			C151.935,71.393,152.836,70.939,153.98,70.44 M156.481,106.362l-5.567-13.202l22.416,6.096L156.481,106.362z M178.906,74.772
			l-20.984-6.229l15.585-6.575L178.906,74.772z"/>
		<path fill="#FFFFFF" d="M191.639,91.535l-6.801-16.127l17.02,11.816L191.639,91.535z M182.815,70.503l-4.46-10.576l14.161-5.974
			l15.775,11.044l-3.532,20.72L182.815,70.503z M208.686,62.637l2.823-16.694l9.558-4.029l13.32,31.592l-17.929,7.562
			L208.686,62.637z"/>
		<path fill="#FFFFFF" d="M242.833,55.598l-19.186-14.774l18.593-7.838l18.186,13.917l5.593,13.262l-18.049,7.613L242.833,55.598z
			 M261.043,43.67l-15.698-11.997l18.709-7.888L261.043,43.67z"/>
		<path fill="#FFFFFF" d="M139.769,139.626l5.879,13.941l-16.204,6.833c-2.857,1.206-5.813,1.602-8.864,1.191
			c-3.042-0.387-5.817-1.502-8.329-3.354c-2.505-1.836-4.356-4.173-5.549-7.002c-0.946-2.243-1.398-4.512-1.354-6.792
			c0.017-2.274,0.5-4.466,1.448-6.582c0.935-2.107,2.269-3.982,4-5.625c1.716-1.635,3.775-2.962,6.178-3.975l15.245-6.431
			l5.831,13.823l-19.591-7.405l12.894,30.569L139.769,139.626z"/>
		
			<rect x="142.327" y="115.098" transform="matrix(-0.9214 0.3887 -0.3887 -0.9214 343.6395 194.9709)" fill="#FFFFFF" width="19.546" height="34.286"/>
		<polygon fill="#FFFFFF" points="164.136,125.337 158.13,111.094 194.566,95.728 200.558,109.929 186.084,100.957 186.005,100.99 
			198.735,131.178 180.606,138.824 167.875,108.634 167.796,108.668 		"/>
		<path fill="#FFFFFF" d="M215.517,109.757l-19.185-14.773l18.588-7.84l18.188,13.92l5.592,13.261l-18.048,7.612L215.517,109.757z
			 M233.726,97.833l-15.699-11.999l18.711-7.891L233.726,97.833z"/>
	</g>
</g>
<g id="philly" display="none">
	<path display="inline" fill="#5DCF00" d="M317.841,146.56c1.316,6.56-3.859,13.129-11.559,14.674l-263.5,52.881
		c-7.701,1.546-15.01-2.519-16.326-9.077L-6.432,41.163c-1.317-6.559,3.858-13.13,11.559-14.675l263.502-52.881
		c7.698-1.545,15.009,2.519,16.324,9.078L317.841,146.56z"/>
	<g display="inline">
		<path fill="#FFFFFF" d="M138.684,34.255l22.8,6.734c2.144,0.609,3.824,1.384,5.044,2.334c1.242,0.968,2.193,2.237,2.853,3.804
			c0.808,1.918,1.009,3.88,0.592,5.878c-0.399,1.994-1.366,3.755-2.893,5.281c-0.418,0.428-0.789,0.757-1.117,0.99
			c-0.455,0.333-0.927,0.632-1.412,0.901c-0.553,0.295-1.229,0.627-2.032,1c-2.8-0.596-4.789-1.025-5.968-1.285
			c-1.178-0.257-2.581-0.578-4.205-0.962c-2.641-0.631-5.241-1.353-7.801-2.16c-2.486-0.744-4.52-1.484-6.104-2.216
			c-1.545-0.687-2.726-1.359-3.54-2.022c-0.661-0.555-1.268-1.212-1.823-1.968c-0.568-0.752-1.006-1.497-1.318-2.23
			c-0.856-2.03-1.078-4.013-0.667-5.945c0.405-1.949,1.387-3.703,2.95-5.258c0.617-0.59,1.261-1.097,1.932-1.521
			C136.636,35.205,137.542,34.754,138.684,34.255 M141.186,70.174l-5.569-13.202l22.416,6.097L141.186,70.174z M163.608,38.584
			l-20.983-6.229l15.585-6.572L163.608,38.584z"/>
		
			<rect x="111.592" y="42.787" transform="matrix(-0.9214 0.3886 -0.3886 -0.9214 256.4774 67.9866)" fill="#FFFFFF" width="19.542" height="34.285"/>
		<polygon fill="#FFFFFF" points="75.898,97.705 62.577,66.116 80.425,58.588 86.467,72.911 89.09,71.806 83.049,57.482 
			100.938,49.937 114.26,81.529 96.331,89.09 90.155,74.446 87.531,75.552 93.708,90.195 		"/>
		<polygon fill="#FFFFFF" points="28.298,97.351 22.292,83.105 58.729,67.739 64.721,81.94 50.248,72.969 50.166,73.002 
			62.897,103.189 44.77,110.834 32.038,80.646 31.959,80.682 		"/>
		
			<rect x="126.896" y="78.969" transform="matrix(-0.9215 0.3885 -0.3885 -0.9215 299.9397 131.584)" width="19.546" height="34.285"/>
		<path d="M153.98,70.44l22.803,6.737c2.141,0.603,3.822,1.384,5.041,2.333c1.242,0.969,2.194,2.233,2.854,3.798
			c0.812,1.924,1.008,3.884,0.592,5.886c-0.398,1.994-1.365,3.752-2.892,5.278c-0.421,0.427-0.791,0.757-1.117,0.99
			c-0.456,0.333-0.927,0.634-1.412,0.901c-0.553,0.297-1.23,0.63-2.032,1.001c-2.801-0.596-4.79-1.027-5.968-1.284
			c-1.182-0.259-2.58-0.581-4.207-0.962c-2.64-0.634-5.241-1.353-7.801-2.161c-2.484-0.746-4.519-1.484-6.099-2.219
			c-1.55-0.684-2.73-1.357-3.544-2.021c-0.661-0.555-1.268-1.21-1.822-1.968c-0.569-0.752-1.01-1.494-1.319-2.23
			c-0.856-2.028-1.078-4.013-0.667-5.947c0.405-1.948,1.39-3.699,2.949-5.256c0.618-0.589,1.261-1.097,1.932-1.521
			C151.935,71.393,152.836,70.939,153.98,70.44 M156.481,106.362l-5.567-13.202l22.416,6.096L156.481,106.362z M178.906,74.772
			l-20.984-6.229l15.585-6.575L178.906,74.772z"/>
		<path fill="#FFFFFF" d="M191.639,91.535l-6.801-16.127l17.02,11.816L191.639,91.535z M182.815,70.503l-4.46-10.576l14.161-5.974
			l15.775,11.044l-3.532,20.72L182.815,70.503z M208.686,62.637l2.823-16.694l9.558-4.029l13.32,31.592l-17.929,7.562
			L208.686,62.637z"/>
		<path fill="#FFFFFF" d="M242.833,55.598l-19.186-14.774l18.593-7.838l18.186,13.917l5.593,13.262l-18.049,7.613L242.833,55.598z
			 M261.043,43.67l-15.698-11.997l18.709-7.888L261.043,43.67z"/>
		<path fill="#FFFFFF" d="M139.769,139.626l5.879,13.941l-16.204,6.833c-2.857,1.206-5.813,1.602-8.864,1.191
			c-3.042-0.387-5.817-1.502-8.329-3.354c-2.505-1.836-4.356-4.173-5.549-7.002c-0.946-2.243-1.398-4.512-1.354-6.792
			c0.017-2.274,0.5-4.466,1.448-6.582c0.935-2.107,2.269-3.982,4-5.625c1.716-1.635,3.775-2.962,6.178-3.975l15.245-6.431
			l5.831,13.823l-19.591-7.405l12.894,30.569L139.769,139.626z"/>
		
			<rect x="142.327" y="115.098" transform="matrix(-0.9214 0.3887 -0.3887 -0.9214 343.6395 194.9709)" fill="#FFFFFF" width="19.546" height="34.286"/>
		<polygon fill="#FFFFFF" points="164.136,125.337 158.13,111.094 194.566,95.728 200.558,109.929 186.084,100.957 186.005,100.99 
			198.735,131.178 180.606,138.824 167.875,108.634 167.796,108.668 		"/>
		<path fill="#FFFFFF" d="M215.517,109.757l-19.185-14.773l18.588-7.84l18.188,13.92l5.592,13.261l-18.048,7.612L215.517,109.757z
			 M233.726,97.833l-15.699-11.999l18.711-7.891L233.726,97.833z"/>
	</g>
</g>
</svg>
