<?xml version="1.0" encoding="utf-8"?>
<!-- Generator: Adobe Illustrator 15.1.0, SVG Export Plug-In . SVG Version: 6.00 Build 0)  -->
<!DOCTYPE svg PUBLIC "-//W3C//DTD SVG 1.1//EN" "http://www.w3.org/Graphics/SVG/1.1/DTD/svg11.dtd">
<svg version="1.1" id="Layer_1" xmlns="http://www.w3.org/2000/svg" xmlns:xlink="http://www.w3.org/1999/xlink" x="0px" y="0px"
	 width="585px" height="83px" viewBox="0 0 585 83" enable-background="new 0 0 585 83" xml:space="preserve">
<g>
	<path fill="#FFFFFF" d="M16.797,46.4V24.384l-6.621,2.953c-0.001,0-1.688,3.781-1.393,9.267c0.233,4.286,2.629,9.413,4.47,11.562
		L16.797,46.4 M36.186,1.072c1.634,0.144,4.198,0.948,6.13,2.641c2.052,1.993,2.52,5.018,1.801,7.767
		c-0.64,2.449-1.356,3.721-3.855,5.414c-2.526,1.704-5.58,1.561-5.58,1.561v10.611l5.162,4.178l-5.163,4.165l0.001,14.455
		c0,0,5.172-2.965,8.38-9.604c0,0,0.132-0.361,0.434-1.045c0.286,1.777,0.122,5.379-1.89,10c-1.516,3.48-4.272,6.83-7.73,8.738
		c-6.128,3.398-10.724,3.723-15.651,2.701c-5.768-1.188-11.008-4.43-14.584-10.084c-2.513-3.973-3.637-8.605-3.534-13.589
		c0.202-9.784,7.48-18.222,15.88-21.368c1.023-0.384,1.431-0.636,2.881-0.768c-0.668,0.457-1.441,1.044-2.39,1.668
		c-2.706,1.777-5.023,5.318-6.013,8.043l16.307-7.274V42.08l-13.151,6.59c1.5,2.076,6.051,5.223,9.946,5.666
		c6.625,0.732,10.512-2.16,10.512-2.16l-0.001-14.767l-5.134-4.165l5.137-4.166V18.455c-2.799-0.324-6.202-1.249-8.19-1.741
		c-2.924-0.72-12.675-3.458-14.208-3.686C10.15,12.8,8.26,12.873,7.117,13.893c-1.144,1.032-1.853,2.845-1.365,4.477
		c0.275,0.924,0.911,1.465,1.393,1.993c0,0-0.563-0.048-1.583-0.66c-1.841-1.104-3.241-3.265-3.41-5.93
		C1.935,10.28,3.373,7.134,6.254,5.022c2.503-1.609,5.334-2.641,8.626-2.173c4.802,0.684,11.259,3.397,17.01,4.777
		c2.228,0.541,3.953,0.721,5.52-0.192c0.73-0.528,2.013-1.885,0.964-3.685c-1.224-2.113-3.571-2.065-5.559-2.437
		C34.525,0.953,34.9,0.953,36.186,1.072z"/>
	<path fill="#FFFFFF" d="M99.645,40.662l-7.409,5.428V28.034L99.645,40.662 M99.432,23.316c0,0-4.996,3.025-8.356,5.03
		c-3.359,1.993-7.866,4.189-7.866,4.189v21.008l-3.005,2.414l0.398,0.467l2.932-2.363l9.189,8.307l15.97-12.652l-0.378-0.457
		l-8.827,6.926l-7.254-6.793l0.001-2.533l14.572-10.721L99.432,23.316z"/>
	<path fill="#FFFFFF" d="M57.571,70.266c2.097,0.516,5.796,0.805,10.256-1.43c4.938-2.473,7.421-7.719,7.387-13.096l0.209-7.623
		l0.001-16.65l3.157-2.413l-0.368-0.468l-3.107,2.341l-7.17-7.971l-9.198,7.898V4.013l-11.494,8.883
		c0.511,0.324,2.14,0.625,2.188,2.917v37.599l-4.866,3.613l0.333,0.504l2.351-1.754l6.544,6.086l10.303-8.197l-0.374-0.469
		l-2.422,1.92l-2.563-2.545l0.024-20.947l3.002-2.557l4.477,5.558c0,0-0.009,13.565,0.003,18.067
		c-0.034,4.801-0.049,10.791-2.573,13.684C61.151,69.281,60.14,69.51,57.571,70.266"/>
	<path fill="#FFFFFF" d="M129.075,68.369c-4.116-0.469-5.845-2.965-5.798-4.934c0.03-1.262,1.175-3.734,3.678-4.07
		c2.501-0.348,5.058,0.828,7.217,3.361l9.507-10.504l-0.458-0.408l-2.553,2.857c-2.594-2.953-6.276-4.814-9.942-5.354V17.314
		l24.694,44.981c0,0,0.236,0.516,1.252,0.516c0.874,0,0.664-0.709,0.664-0.709l-0.003-45.268c2.006-0.084,5.069-1.188,6.557-2.712
		c4.755-4.886,2.812-10.216,2.291-10.732c-0.291,2.329-2.082,4.67-5.071,4.682c-3.922,0.012-6.313-2.881-6.313-2.881l-9.5,10.828
		l0.454,0.408l2.722-3.109c3.324,3.061,5.751,3.349,8.261,3.517L156.729,43.1L138.412,9.823c-1.656-2.749-4.183-5.162-8.141-5.198
		c-4.551-0.024-7.807,3.985-8.196,7.442c-0.44,3.901,0.047,4.802,0.047,4.802s0.67-4.345,3.359-4.309
		c2.415,0.036,3.672,2.256,4.641,3.925v9.639c-2.491,0.168-8.976,0.456-9.372,7.203c-0.029,2.509,1.529,5.138,2.894,6.026
		c1.755,1.152,3.124,1.128,3.124,1.128s-2.102-1.116-1.473-3.325c0.563-1.98,4.682-2.305,4.83-1.477l-0.001,13.601
		c-1.981-0.023-8.326,0.193-11.188,5.631c-1.725,3.289-1.624,6.963,0.22,9.555C120.658,66.58,123.751,69.281,129.075,68.369"/>
	<path fill="#FFFFFF" d="M181.443,40.662l-7.41,5.428V28.034L181.443,40.662 M181.23,23.316c0,0-4.998,3.025-8.357,5.03
		c-3.36,1.993-7.865,4.189-7.865,4.189v21.008l-3.006,2.414l0.398,0.467l2.931-2.363l9.189,8.307l15.97-12.652l-0.378-0.457
		l-8.825,6.926l-7.255-6.793l0.001-2.533l14.572-10.721L181.23,23.316z"/>
	<path fill="#FFFFFF" d="M203.553,62.523l-7.83-6.508l-3.439,2.498l-0.349-0.492l3.498-2.557V37.277
		c0.169-7.491-6.86-5.63-6.48-13.577c0.168-3.493,3.55-6.134,5.255-7.01c1.827-0.925,3.804-0.925,3.804-0.925
		s-3.205,2.005-2.427,4.886c1.199,4.441,8.793,4.838,8.936,10.756v20.636l5.608,4.49l1.474-1.152V33.04l-3.023-3.001l7.785-6.891
		l7.111,6.302l-2.713,2.941v19.796l6.66,5.498l1.184-0.758V33.099l-3.029-2.833l7.8-7.13l7.292,6.026l2.912-2.581l0.394,0.456
		l-6.555,5.762v19.423L220.645,62.57l-8.581-6.795L203.553,62.523"/>
	<path fill="#FFFFFF" d="M546.922,40.662l-7.41,5.428V28.034L546.922,40.662 M546.709,23.316c0,0-4.998,3.025-8.355,5.03
		c-3.361,1.993-7.867,4.189-7.867,4.189v21.008l-3.006,2.414l0.4,0.467l2.932-2.363l9.189,8.307l15.969-12.652l-0.377-0.457
		l-8.826,6.926l-7.256-6.793v-2.533l14.574-10.721L546.709,23.316z"/>
	<polyline fill="#FFFFFF" points="471.733,32.103 472.124,32.559 475.132,29.966 479.597,35.02 479.597,52.379 477.429,54.359 
		484.386,62.223 491.524,55.188 488.591,52.15 488.591,31.155 490.366,29.738 495.302,35.5 495.302,52.811 493.446,54.66 
		499.997,62.031 507.003,55.02 504.429,52.318 504.362,31.239 506.255,29.702 511.401,35.368 511.401,52.584 509.708,54.275 
		516.941,62.162 526.652,53.195 526.24,52.752 523.883,54.924 520.266,50.914 520.266,31.263 523.758,28.61 523.395,28.129 
		519.898,30.783 513.291,23.376 503.843,30.843 497.226,23.64 488.101,30.783 481.423,23.676 471.733,32.103 	"/>
	<polyline fill="#FFFFFF" points="451.962,31.563 452.354,32.019 454.896,29.822 458.87,34.528 458.87,54.371 456.067,56.82 
		456.458,57.277 459.401,54.768 465.812,62.162 475.075,53.893 474.685,53.436 471.956,55.836 468.126,51.418 468.126,32.019 
		471.356,29.222 470.966,28.766 467.897,31.407 461.151,23.544 451.962,31.563 	"/>
	<polyline fill="#FFFFFF" points="454.632,15.129 461.606,8.743 467.278,15.033 460.272,21.396 454.632,15.129 	"/>
	<path fill="#FFFFFF" d="M425.866,46.4V24.384l-6.621,2.953c0,0-1.689,3.781-1.395,9.267c0.232,4.286,2.629,9.413,4.471,11.562
		L425.866,46.4 M445.253,1.072c1.635,0.144,4.199,0.948,6.131,2.641c2.053,1.993,2.52,5.018,1.801,7.767
		c-0.641,2.449-1.355,3.721-3.857,5.414c-2.523,1.704-5.578,1.561-5.578,1.561v10.611l5.164,4.178l-5.164,4.165v14.455
		c0,0,5.172-2.965,8.381-9.604c0,0,0.133-0.361,0.432-1.045c0.285,1.777,0.125,5.379-1.889,10c-1.516,3.48-4.273,6.83-7.73,8.738
		c-6.127,3.398-10.723,3.723-15.648,2.701c-5.77-1.188-11.008-4.43-14.584-10.084c-2.514-3.973-3.641-8.605-3.535-13.589
		c0.201-9.784,7.479-18.222,15.881-21.368c1.021-0.384,1.428-0.636,2.881-0.768c-0.67,0.457-1.443,1.044-2.391,1.668
		c-2.705,1.777-5.023,5.318-6.014,8.043l16.305-7.274V42.08l-13.148,6.59c1.5,2.076,6.051,5.223,9.947,5.666
		c6.623,0.732,10.51-2.16,10.51-2.16V37.409l-5.133-4.165l5.133-4.166V18.455c-2.799-0.324-6.199-1.249-8.188-1.741
		c-2.926-0.72-12.678-3.458-14.209-3.686s-3.422-0.156-4.564,0.865c-1.145,1.032-1.852,2.845-1.365,4.477
		c0.275,0.924,0.91,1.465,1.393,1.993c0,0-0.564-0.048-1.584-0.66c-1.842-1.104-3.242-3.265-3.41-5.93
		c-0.215-3.493,1.223-6.639,4.104-8.751c2.504-1.609,5.334-2.641,8.627-2.173c4.801,0.684,11.258,3.397,17.01,4.777
		c2.229,0.541,3.953,0.721,5.518-0.192c0.73-0.528,2.014-1.885,0.965-3.685c-1.225-2.113-3.57-2.065-5.559-2.437
		C443.593,0.953,443.968,0.953,445.253,1.072z"/>
	<path fill="#FFFFFF" d="M567.494,27.374v10.432l3.473,3.025c0,0,7.543-6.038,10.281-11.632c0,0-3.389,4.598-7.953,3.193
		C569.475,31.227,567.494,27.374,567.494,27.374 M559.072,55.031c0,0,3.303-5.461,8.977-4.285c5.443,1.129,7.332,6.879,7.332,6.879
		v-13.24l-3.797-3.303C567.414,45.273,559.992,51.334,559.072,55.031z M564.48,65.08c-1.059,0.311-5.658-0.805-6.762-5.57
		c-1.074-4.646,2.15-7.791,7.023-12.736l-5.752-5.259V31.479c0,0,4.227-2.113,7.539-4.178c3.312-2.077,6.701-4.321,6.701-4.321
		s2.471,3.121,5.264,2.869c4.373-0.384,4.17-3.83,4.043-4.646c0.746,1.332,2.744,5.293-4.939,14.152l6.258,5.054v13.038
		c0,0-7.27,3.781-14.145,8.799c0,0-3.838-4.801-7.17-2.508C560.291,61.285,561.32,63.902,564.48,65.08z"/>
	<path fill="#FFFFFF" d="M312.966,50.254l8.082,7.311V35.188l-8.082-7.479V50.254 M329.628,31.983l2.818-2.593l0.404,0.456
		l-2.744,2.545v20.732c0,0-5.213,2.762-8.852,4.814c-3.635,2.053-7.52,4.465-7.52,4.465l-9.564-8.055l-2.529,2.197l-0.408-0.457
		l2.658-2.316V31.479h0.035c0,0,4.512-2.041,8.316-4.189c3.404-1.921,7.213-4.142,7.213-4.142L329.628,31.983z"/>
	<path fill="#FFFFFF" d="M348.433,29.882l6.074-6.206c0,0,0.836,0.732,1.617,1.116c0.445,0.216,2.283,1.165,3.971,0.24
		c0.914-0.504,1.045-0.636,2.047-1.585c0.205,4.826-2.111,8.223-5.002,9.627c-1.184,0.576-4.639,1.681-8.254-2.725v22.304
		l3.846,3.398l3.209-2.654l0.371,0.469l-10.053,8.391l-7.648-6.961l-2.752,2.592l-0.451-0.48l4.191-3.781l0.035-19.255l-3.215-4.261
		l-2.764,2.437l-0.4-0.444l9.738-8.751L348.433,29.882"/>
	<path fill="#FFFFFF" d="M374.046,39.173l11.232-16.337c0,0,1.48,1.752,4.061,2.437c3.508,0.912,6.57-2.473,6.57-2.473
		c-0.586,4.37-2.801,9.327-7.375,10.083c-4.029,0.672-7.777-2.461-7.777-2.461l-0.729,1.128l15.594,23.553l3.119-2.736l0.402,0.455
		l-10.701,9.352L374.046,39.173"/>
	<path fill="#FFFFFF" d="M364.767,17.362c0-3.529-1.445-5.702-3.334-5.546l12.252-8.607v48.715h0.002l3.234,3.408l2.451-2.125
		l0.385,0.457l-9.873,8.619l-6.688-6.279l-2.678,2.354l-0.424-0.457l4.672-4.068V17.362"/>
	<path fill="#FFFFFF" d="M286.1,31.059c0,0-1.353,1.537-3.482,1.537s-3.523-1.548-3.523-1.548v6.674c0,0,1.394-1.549,3.523-1.549
		s3.482,1.464,3.482,1.464V31.059 M286.1,16.762l-4.725-4.153l-2.281,1.8V30.05c0,0,1.405,1.776,3.534,1.776
		c2.131,0,3.472-1.704,3.472-1.704V16.762z M279.094,61.07c0,0,2.855,0.756,4.937-0.949c2.312-1.908,2.069-4.584,2.069-4.584v-16.88
		c0,0-1.341-1.729-3.472-1.729c-2.129,0-3.534,1.789-3.534,1.789V61.07z M262.343,16.558c-0.001-3.289-1.337-5.125-3.501-5.174
		c-3.114-0.072-3.852,4.322-3.852,4.322s-0.567-3.385,2.266-6.458c1.593-1.716,4.565-4.129,9.212-3.013
		c4.799,1.164,6.162,4.885,6.162,8.174v45.316c0,0,1.813,0.217,3.057,0.494c1.443,0.299,2.81,0.684,2.81,0.684V6.258h0.597v7.37
		l9.84-7.922l7.208,6.41l3.361-2.905l0.383,0.456l-3.514,3.025v42.136c-0.174,2.748-0.617,5.545-3.213,7.154
		c-5.79,3.434-12.775-0.527-18.997-1.428c-4.618-0.686-11.869-1.561-13.688,2.676c-0.594,1.393-0.553,3.541,1.542,4.945
		c4.204,2.811,22.925-4.717,29.346-1.729c5.854,2.725,5.832,7.035,4.928,10c-1.521,5.559-8.539,6.531-8.539,6.531
		s3.433-1.994,2.454-5.295c-0.496-1.668-1.629-2.137-5.303-1.729c-8.024,0.912-17.616,4.801-24.061,2.102
		c-3.322-1.381-5.671-5.535-5.443-9.615c0.166-5.871,6.944-8.188,6.944-8.188l-0.002-21.717c-0.193-0.864-3.811-0.636-4.601,0.96
		c-1.203,2.414,1.495,3.518,1.495,3.518s-2.236,0.336-4.11-1.825c-0.912-1.057-2.818-4.754-0.34-8.175
		c2.037-2.821,4.479-3.313,7.559-3.649V16.558z"/>
</g>
</svg>
