<?xml version="1.0" encoding="utf-8"?>
<!-- Generator: Adobe Illustrator 16.0.0, SVG Export Plug-In . SVG Version: 6.00 Build 0)  -->
<!DOCTYPE svg PUBLIC "-//W3C//DTD SVG 1.1//EN" "http://www.w3.org/Graphics/SVG/1.1/DTD/svg11.dtd">
<svg version="1.1" id="Layer_1" xmlns="http://www.w3.org/2000/svg" xmlns:xlink="http://www.w3.org/1999/xlink" x="0px" y="0px"
	 width="248.462px" height="42.67px" viewBox="32.053 28.792 248.462 42.67" enable-background="new 32.053 28.792 248.462 42.67"
	 xml:space="preserve">
<g>
	<path fill="#FFFFFF" d="M242.622,56.809v-6.353l-1.738,0.17c-1.733,0.167-3.153,1.315-3.153,3.472c0,2.48,1.367,3.569,2.805,3.569
		C241.365,57.667,242.211,57.259,242.622,56.809 M237.348,41.1l-1.584,4.593h-3.873v-5.905c2.098-0.649,5.061-1.709,9.014-1.709
		c6.002,0,9.191,2.361,9.191,7.413V57.73l2.655,1.102v1.971c-0.731,0.391-2.935,0.895-4.742,0.895c-2.347,0-4.176-0.748-4.522-3.174
		h-0.202c-0.999,2.015-3.66,3.216-6.455,3.216c-3.992,0-6.502-2.563-6.502-6.31c0-4.605,3.044-5.619,7.981-6.641l4.313-0.734v-2.719
		c0-2.893-0.87-4.332-3.745-4.332C238.507,41.004,237.799,41.058,237.348,41.1"/>
	<path fill="#FFFFFF" d="M161.532,56.809v-6.353l-1.741,0.17c-1.73,0.167-3.15,1.315-3.15,3.472c0,2.48,1.367,3.569,2.805,3.569
		C160.273,57.667,161.121,57.259,161.532,56.809 M156.255,41.1l-1.584,4.593H150.8v-5.905c2.099-0.649,5.061-1.709,9.011-1.709
		c6.002,0,9.194,2.361,9.194,7.413V57.73l2.655,1.102v1.971c-0.733,0.391-2.934,0.895-4.741,0.895c-2.347,0-4.177-0.748-4.522-3.174
		h-0.203c-1,2.015-3.659,3.216-6.458,3.216c-3.992,0-6.499-2.563-6.499-6.31c0-4.605,3.042-5.619,7.98-6.641l4.314-0.734v-2.719
		c0-2.893-0.872-4.332-3.746-4.332C157.414,41.004,156.709,41.058,156.255,41.1"/>
	<path fill="#FFFFFF" d="M35.504,54.896V42.437h-3.451V39.03l3.451-0.461v-4.254l7.445-1.042v5.296h4.938v3.868h-4.938v11.809
		c0,2.202,0.62,3.34,2.799,3.34c0.782,0,1.841-0.089,2.382-0.181v2.913c-1.218,0.703-3.756,1.302-6.102,1.302
		C37.585,61.619,35.504,59.662,35.504,54.896"/>
	<path fill="#FFFFFF" d="M86.958,40.813c1.87,0,2.878,0.801,2.878,6.675l-6.245,0.361C83.591,42.554,84.584,40.813,86.958,40.813
		 M83.657,50.537h13.418c0-9.451-3.249-12.458-9.994-12.458c-6.706,0-11.107,4.318-11.107,11.728c0,7.657,3.988,11.891,11.72,11.891
		c4.16,0,7.517-1.833,8.556-3.258v-2.198c-1.562,0.489-3.166,0.776-6.048,0.776C86.142,57.018,84.054,54.919,83.657,50.537"/>
	<path fill="#FFFFFF" d="M109.26,68.516c-4.088,0-5.86-1.029-5.86-2.593c0-1.099,0.328-2.095,1.051-2.737h8.815
		c1.851,0,3.288,0.263,3.288,1.933C116.554,67.439,114.366,68.516,109.26,68.516 M109.46,40.816c1.627,0,2.684,1.198,2.684,4.963
		c0,3.758-1.071,4.718-2.684,4.718c-1.609,0-2.655-0.96-2.655-4.718C106.805,42.015,107.834,40.816,109.46,40.816 M113.985,56.354
		h-7.491c-1.132,0-1.861-0.74-1.861-1.514c0-0.605,0.165-1.517,0.706-1.957c1.228,0.369,2.612,0.553,4.121,0.553
		c5.801,0,9.77-2.541,9.77-7.43c0-2.209-0.774-3.45-2.215-4.733l0.074-0.188l3.899,1.198v-4.226h-0.436l-5.592,0.996h-0.319
		c-1.397-0.514-3.375-0.936-5.181-0.936c-5.798,0-9.814,2.772-9.814,7.66c0,2.979,1.223,5.168,3.699,6.428v0.234
		c-2.062,1.527-3.74,3.591-3.74,5.424c0,1.748,1.233,3.775,3.621,4.346v0.238c-2.047,0.716-4.976,1.482-4.976,3.924
		c0,3.014,3.751,5.091,10.829,5.091c8.793,0,12.734-3.573,12.734-8.93C121.812,58.139,118.954,56.354,113.985,56.354"/>
	<polygon fill="#FFFFFF" points="216.697,39.547 216.697,41.862 219.473,43.021 219.473,57.73 216.814,58.833 216.814,61.172 
		229.621,61.172 229.621,58.833 226.958,57.73 226.958,38.055 226.329,38.055 	"/>
	<path fill="#FFFFFF" d="M172.646,39.547v2.315l2.777,1.159V57.73l-2.662,1.102v2.34h13.758v-2.34l-3.608-1.102l-0.007-12.238
		c1.277-0.614,2.964-0.815,4.979-0.815c0.659,0,1.439,0.082,1.893,0.202v-6.558c-0.246-0.082-0.739-0.117-1.11-0.117
		c-2.47,0-4.481,1.585-5.804,4.598h-0.244v-4.747h-0.629L172.646,39.547"/>
	<path fill="#FFFFFF" d="M223.191,28.792c2.195,0,3.973,1.772,3.973,3.967c0,2.194-1.775,3.974-3.973,3.974
		c-2.192,0-3.971-1.779-3.971-3.974C219.221,30.564,220.999,28.792,223.191,28.792"/>
	<path fill="#FFFFFF" d="M205.385,33.779l-3.039-1.155v-2.312l9.896-1.496h0.63v28.219l2.646,1.305v2.219l-9.166,1.008l-0.637-0.004
		v-2.342h-0.248c-0.936,1.194-2.867,2.441-5.66,2.441c-4.117,0-9.009-2.609-9.009-11.245c0-9.079,5.005-12.34,10.968-12.34
		c1.229,0,2.713,0.287,3.618,0.936L205.385,33.779 M205.379,57.191V41.983c-0.572-0.447-1.186-0.812-2.545-0.812
		c-2.348,0-4.141,2.12-4.141,8.478c0,5.564,1.425,7.982,4.384,7.982C204.229,57.631,204.874,57.4,205.379,57.191"/>
	<path fill="#FFFFFF" d="M124.853,43.021l-2.785-1.159v-2.315l9.632-1.493h0.631v15.868c0,2.566,1.253,3.018,3.146,3.018
		c1.396,0,1.95-0.241,2.69-0.528v-13.39l-2.781-1.159v-2.315l9.638-1.493h0.629v19.25l2.765,1.305v1.949l-9.362,1.008l-0.636-0.004
		l-0.005-2.996h-0.249c-1.439,1.791-3.811,3.096-6.854,3.096c-4.525,0-6.459-3.227-6.459-7.133V43.021"/>
	<path fill="#FFFFFF" d="M49.523,58.829l2.655-1.099V33.766l-2.778-1.16v-2.315l9.554-1.492h0.627v12.252h0.248
		c2.014-1.83,4.728-2.971,7.771-2.971c3.786,0,5.676,1.89,5.676,6.02v13.63l2.666,1.099v2.343h-12.55v-2.343l2.396-1.099V46.042
		c0-2.279-1.007-3.138-3.037-3.138c-1.113,0-2.18,0.202-3.086,0.571V57.73l2.396,1.099v2.343H49.523V58.829"/>
	<path fill="#FFFFFF" d="M254.096,58.829l2.652-1.099V43.021l-2.777-1.159v-2.315l9.557-1.493h0.629v2.996h0.244
		c2.016-1.83,4.726-2.971,7.771-2.971c3.784,0,5.672,1.89,5.672,6.02V57.73l2.672,1.099v2.343h-12.554v-2.343l2.397-1.099V46.042
		c0-2.279-1.006-3.138-3.037-3.138c-1.113,0-2.18,0.202-3.086,0.571V57.73l2.396,1.099v2.343h-12.537V58.829"/>
</g>
</svg>
